<svg width="103" height="100" viewBox="0 0 103 100" fill="none" xmlns="http://www.w3.org/2000/svg">
<path d="M66.3556 72.829C62.7368 76.2829 63.3849 76.9706 63.628 82.0359C63.6686 82.6626 63.5706 83.2904 63.3402 83.8806C63.1098 84.4708 62.7518 85.0108 62.2883 85.4675C61.8247 85.9242 61.2655 86.2879 60.645 86.536C60.0246 86.7842 59.356 86.9116 58.6805 86.9105H44.324C43.649 86.9094 42.9813 86.7805 42.3616 86.5317C41.7419 86.2828 41.1833 85.9192 40.7198 85.4631C40.2564 85.0069 39.8977 84.4678 39.6659 83.8786C39.434 83.2893 39.3337 82.6624 39.3711 82.0359C39.3711 77.066 39.868 75.9114 36.6489 72.829C32.5439 69.0137 22.8865 63.6271 22.8865 48.8127C22.8619 45.1329 23.6577 41.4883 25.2237 38.1086C26.7898 34.7289 29.0921 31.6873 31.9857 29.1757C34.8793 26.6641 38.3012 24.7368 42.036 23.5154C45.7707 22.2939 49.7372 21.8049 53.6853 22.079C57.6335 22.353 61.4778 23.3844 64.9759 25.1079C68.4739 26.8314 71.5499 29.2098 74.0099 32.0931C76.4699 34.9764 78.2606 38.3021 79.2691 41.8605" stroke="white" stroke-width="3" stroke-linecap="round" stroke-linejoin="round"/>
<path d="M43.1844 86.6344V94.2249C43.1844 96.2982 44.4266 98 45.9552 98H57.0439C58.5833 98 59.8201 96.2931 59.8201 94.2249V86.6344M47.2893 33.7222C44.1001 33.7236 41.0419 34.902 38.7873 36.9985C36.5327 39.095 35.2662 41.9378 35.2662 44.9021M81.1334 19.6458L88.1604 13.1146M51.5022 2V9.44486M14.9899 13.1096L21.9683 19.6458M9.58872 81.9356L16.5671 75.4094M11.9005 49.8268H2" stroke="white" stroke-width="3" stroke-linecap="round" stroke-linejoin="round"/>
<path d="M63.506 49.794C63.9586 50.0516 64.4707 50.1862 64.9915 50.1846C65.5122 50.1829 66.0235 50.045 66.4745 49.7846C66.9254 49.5241 67.3004 49.1502 67.562 48.6999C67.8237 48.2496 67.9629 47.7387 67.966 47.218H70.966C70.9688 47.739 71.108 48.2503 71.3698 48.7008C71.6316 49.1513 72.0067 49.5255 72.458 49.786C72.9093 50.0465 73.4209 50.1843 73.9419 50.1857C74.463 50.1871 74.9753 50.0521 75.428 49.794L76.928 52.39C77.762 51.924 78.76 51.616 79.776 51.434C79.7146 51.254 79.6346 51.078 79.536 50.906L78.018 48.28C77.6254 47.5985 76.9794 47.0999 76.2208 46.8927C75.4622 46.6855 74.6524 46.7866 73.968 47.174C73.9611 46.3874 73.6436 45.6355 73.0846 45.0822C72.5256 44.5288 71.7705 44.2189 70.984 44.22H67.952C66.312 44.22 64.982 45.54 64.968 47.176C64.2834 46.788 63.4731 46.6865 62.714 46.8937C61.9549 47.1009 61.3085 47.6 60.916 48.282L59.4 50.906C58.58 52.326 59.06 54.138 60.468 54.968C59.7898 55.3669 59.2968 56.0179 59.0967 56.7788C58.8967 57.5398 59.0057 58.3491 59.4 59.03L60.916 61.656C61.736 63.076 63.544 63.566 64.968 62.762C64.98 63.998 65.744 65.056 66.824 65.498C66.818 64.356 67.104 63.198 67.718 62.138L67.854 61.902C67.7277 61.4686 67.5048 61.0695 67.2022 60.7346C66.8995 60.3997 66.5249 60.1377 66.1065 59.9684C65.688 59.799 65.2367 59.7266 64.7863 59.7567C64.3359 59.7868 63.8982 59.9185 63.506 60.142L62.006 57.544C63.976 56.392 63.976 53.544 62.006 52.392L63.506 49.794Z" fill="white"/>
<path d="M69.468 57.968C70.2637 57.968 71.0267 57.6519 71.5893 57.0893C72.1519 56.5267 72.468 55.7637 72.468 54.968C72.468 54.1724 72.1519 53.4093 71.5893 52.8467C71.0267 52.2841 70.2637 51.968 69.468 51.968C68.6724 51.968 67.9093 52.2841 67.3467 52.8467C66.7841 53.4093 66.468 54.1724 66.468 54.968C66.468 55.7637 66.7841 56.5267 67.3467 57.0893C67.9093 57.6519 68.6724 57.968 69.468 57.968Z" fill="white"/>
<path fill-rule="evenodd" clip-rule="evenodd" d="M78.28 69.22C78.28 67.5942 78.9259 66.0351 80.0755 64.8855C81.2251 63.7359 82.7843 63.09 84.41 63.09C86.0358 63.09 87.595 63.7359 88.7446 64.8855C89.8942 66.0351 90.54 67.5942 90.54 69.22C90.54 70.8458 89.8942 72.405 88.7446 73.5546C87.595 74.7042 86.0358 75.35 84.41 75.35C82.7843 75.35 81.2251 74.7042 80.0755 73.5546C78.9259 72.405 78.28 70.8458 78.28 69.22ZM84.412 66.092C84.001 66.092 83.594 66.173 83.2142 66.3303C82.8345 66.4876 82.4894 66.7181 82.1988 67.0088C81.9081 67.2994 81.6776 67.6445 81.5203 68.0242C81.363 68.404 81.282 68.811 81.282 69.222C81.282 69.6331 81.363 70.0401 81.5203 70.4198C81.6776 70.7996 81.9081 71.1446 82.1988 71.4353C82.4894 71.7259 82.8345 71.9565 83.2142 72.1138C83.594 72.2711 84.001 72.352 84.412 72.352C85.2422 72.352 86.0383 72.0223 86.6253 71.4353C87.2123 70.8483 87.542 70.0522 87.542 69.222C87.542 68.3919 87.2123 67.5958 86.6253 67.0088C86.0383 66.4218 85.2422 66.092 84.412 66.092Z" fill="white"/>
<path fill-rule="evenodd" clip-rule="evenodd" d="M70.316 74.806C70.075 74.389 69.9185 73.9285 69.8555 73.451C69.7925 72.9734 69.8242 72.4882 69.9488 72.0229C70.0734 71.5576 70.2885 71.1215 70.5818 70.7394C70.8751 70.3573 71.2408 70.0367 71.658 69.796C71.7589 69.7374 71.8426 69.6534 71.9008 69.5523C71.959 69.4512 71.9897 69.3366 71.9897 69.22C71.9897 69.1033 71.959 68.9887 71.9008 68.8877C71.8426 68.7866 71.7589 68.7025 71.658 68.644C70.8163 68.1575 70.2022 67.3566 69.9509 66.4175C69.6996 65.4783 69.8317 64.4778 70.318 63.636L72.53 59.804C73.0165 58.9628 73.817 58.3491 74.7557 58.0978C75.6943 57.8466 76.6944 57.9783 77.536 58.464C77.6371 58.5228 77.7519 58.5539 77.8688 58.5541C77.9857 58.5543 78.1007 58.5236 78.2019 58.4652C78.3032 58.4067 78.3873 58.3226 78.4456 58.2212C78.5039 58.1199 78.5344 58.0049 78.534 57.888C78.534 55.864 80.174 54.222 82.198 54.222H86.624C88.65 54.222 90.29 55.864 90.29 57.888C90.29 58.4 90.844 58.72 91.286 58.464C91.7026 58.2227 92.1626 58.0659 92.6398 58.0027C93.117 57.9395 93.602 57.971 94.067 58.0954C94.532 58.2199 94.9679 58.4349 95.3497 58.7281C95.7315 59.0213 96.0517 59.3869 96.292 59.804L98.506 63.64C98.747 64.0564 98.9035 64.5163 98.9666 64.9933C99.0297 65.4703 98.9981 65.9551 98.8736 66.4198C98.7491 66.8846 98.5343 67.3203 98.2413 67.7019C97.9482 68.0836 97.5829 68.4037 97.166 68.644C97.0646 68.7021 96.9804 68.786 96.9218 68.8872C96.8632 68.9883 96.8324 69.1031 96.8324 69.22C96.8324 69.3369 96.8632 69.4517 96.9218 69.5528C96.9804 69.654 97.0646 69.7378 97.166 69.796C98.0072 70.2824 98.6209 71.083 98.8722 72.0216C99.1234 72.9603 98.9917 73.9604 98.506 74.802L96.296 78.634C96.0553 79.0509 95.7348 79.4164 95.3529 79.7095C94.971 80.0026 94.535 80.2176 94.07 80.3422C93.6049 80.4668 93.1199 80.4986 92.6426 80.4358C92.1652 80.373 91.705 80.2167 91.288 79.976C91.1868 79.9173 91.0719 79.8863 90.9549 79.8862C90.8379 79.886 90.723 79.9167 90.6216 79.9751C90.5202 80.0335 90.436 80.1175 90.3775 80.2188C90.3189 80.3201 90.2881 80.435 90.288 80.552C90.288 82.578 88.648 84.218 86.624 84.218H82.2C81.2281 84.218 80.2959 83.832 79.6085 83.1449C78.921 82.4579 78.5346 81.5259 78.534 80.554C78.534 80.437 78.5031 80.3221 78.4446 80.2208C78.386 80.1195 78.3018 80.0355 78.2004 79.9771C78.0991 79.9187 77.9841 79.888 77.8671 79.8882C77.7501 79.8883 77.6352 79.9193 77.534 79.978C76.6921 80.4635 75.6919 80.5949 74.7532 80.3433C73.8145 80.0916 73.0141 79.4775 72.528 78.636L70.316 74.806ZM73.158 72.394C73.082 72.4377 73.0153 72.496 72.9618 72.5656C72.9084 72.6351 72.8692 72.7145 72.8465 72.7993C72.8238 72.884 72.8181 72.9724 72.8297 73.0594C72.8413 73.1463 72.87 73.2301 72.914 73.306L75.126 77.136C75.31 77.456 75.716 77.564 76.036 77.38C78.478 75.97 81.534 77.732 81.534 80.554C81.534 80.92 81.832 81.218 82.2 81.218H86.624C86.8007 81.218 86.9701 81.1478 87.095 81.0229C87.2199 80.898 87.29 80.7286 87.29 80.552C87.29 77.732 90.344 75.968 92.788 77.378C93.108 77.562 93.514 77.452 93.698 77.134L95.91 73.302C95.9978 73.1491 96.0213 72.9678 95.9756 72.7976C95.9299 72.6274 95.8186 72.4823 95.666 72.394C93.224 70.984 93.222 67.458 95.666 66.046C95.7417 66.0027 95.8081 65.9448 95.8612 65.8757C95.9144 65.8066 95.9534 65.7277 95.9759 65.6434C95.9984 65.5592 96.004 65.4713 95.9923 65.3849C95.9807 65.2985 95.952 65.2153 95.908 65.14L93.694 61.306C93.6509 61.2299 93.5931 61.1631 93.5239 61.1095C93.4547 61.056 93.3756 61.0167 93.2911 60.994C93.2066 60.9713 93.1184 60.9656 93.0317 60.9773C92.945 60.9889 92.8615 61.0177 92.786 61.062C90.344 62.474 87.29 60.708 87.29 57.888C87.29 57.7114 87.2199 57.542 87.095 57.4171C86.9701 57.2922 86.8007 57.222 86.624 57.222H82.2C82.1125 57.2215 82.0258 57.2383 81.9448 57.2716C81.8639 57.3049 81.7904 57.354 81.7286 57.416C81.6668 57.478 81.618 57.5516 81.5849 57.6326C81.5518 57.7137 81.5352 57.8005 81.536 57.888C81.536 60.708 78.482 62.472 76.038 61.06C75.8852 60.9722 75.7038 60.9487 75.5336 60.9944C75.3634 61.0401 75.2183 61.1515 75.13 61.304L72.918 65.136C72.8743 65.2118 72.8459 65.2954 72.8344 65.3821C72.823 65.4689 72.8288 65.557 72.8515 65.6415C72.8741 65.726 72.9132 65.8053 72.9665 65.8747C73.0198 65.9441 73.0862 66.0023 73.162 66.046C75.606 67.456 75.602 70.986 73.162 72.394" fill="white"/>
</svg>
