<svg width="50" height="50" viewBox="0 0 50 50" fill="none" xmlns="http://www.w3.org/2000/svg">
<path d="M17.6313 25.4375C17.6313 24.4875 16.9713 23.92 15.8075 23.92C15.3325 23.92 15.0113 23.9663 14.8425 24.0113V27.0625C15.0425 27.1075 15.2875 27.1238 15.6238 27.1238C16.865 27.1238 17.6313 26.495 17.6313 25.4375ZM24.8388 23.95C24.3175 23.95 23.98 23.9963 23.78 24.0425V30.8025C23.98 30.8488 24.3013 30.8488 24.5925 30.8488C26.7075 30.8638 28.0875 29.6988 28.0875 27.2313C28.1038 25.085 26.8463 23.95 24.8388 23.95Z" fill="#4CAF50"/>
<path d="M38.6475 19.9788H37.8V15.89L37.7925 15.8125C37.7933 15.6482 37.7352 15.489 37.6288 15.3638L30.825 7.5938L30.82 7.5888C30.7334 7.49523 30.6234 7.42659 30.5012 7.39005L30.4638 7.37755C30.4119 7.36411 30.3586 7.35738 30.305 7.35755H13.5837C12.82 7.35755 12.2 7.9788 12.2 8.7413V19.9788H11.3525C10.26 19.9788 9.375 20.8638 9.375 21.9563V32.2413C9.375 33.3325 10.2612 34.2188 11.3525 34.2188H12.2V41.26C12.2 42.0225 12.82 42.6438 13.5837 42.6438H36.4162C37.1787 42.6438 37.8 42.0225 37.8 41.26V34.2188H38.6475C39.74 34.2188 40.625 33.3325 40.625 32.2413V21.9563C40.625 20.8638 39.7387 19.9788 38.6475 19.9788ZM13.5837 8.7413H29.6125V15.8213C29.6125 16.2038 29.9225 16.5125 30.305 16.5125H36.4175V19.9788H13.5837V8.7413ZM30.5713 27.1538C30.5713 29.1313 29.8513 30.4963 28.8525 31.3388C27.765 32.2425 26.11 32.6725 24.0862 32.6725C22.875 32.6725 22.0175 32.595 21.4337 32.52V22.3713C22.2925 22.2338 23.4112 22.1575 24.5925 22.1575C26.5537 22.1575 27.8263 22.51 28.8225 23.2613C29.8963 24.0575 30.5713 25.33 30.5713 27.1538ZM12.5262 32.5663V22.3713C13.2462 22.2488 14.2587 22.1575 15.6837 22.1575C17.125 22.1575 18.1525 22.4338 18.8412 22.985C19.5 23.5063 19.9437 24.365 19.9437 25.3763C19.9437 26.3888 19.6075 27.2463 18.9937 27.8288C18.1962 28.58 17.0162 28.9175 15.6362 28.9175C15.33 28.9175 15.0537 28.9025 14.84 28.8713V32.5663H12.5262ZM36.4162 40.885H13.5837V34.2188H36.4162V40.885ZM38.4212 24.15H34.45V26.5113H38.16V28.4125H34.45V32.5663H32.1062V22.2338H38.4212V24.15Z" fill="#4CAF50"/>
</svg>
