<svg width="100" height="100" viewBox="0 0 100 100" fill="none" xmlns="http://www.w3.org/2000/svg">
<mask id="path-1-inside-1_64_2" fill="white">
<path d="M48.4217 94.4324C49.0749 94.4324 49.7448 94.2691 50.4314 93.9424C51.118 93.6158 51.6729 93.2168 52.0962 92.7454L91.0712 49.3347C92.3277 47.9353 93.2975 46.5063 93.9808 45.0476C94.6607 43.5815 95.0006 41.9743 95.0006 40.2261C95.0006 38.4555 94.6607 36.737 93.9808 35.0704C93.2975 33.4001 92.3277 31.8783 91.0712 30.505L72.3236 9.62641C71.0871 8.22709 69.8156 7.20079 68.5091 6.54752C67.2059 5.89425 65.7594 5.56762 64.1696 5.56762C62.5998 5.56762 61.1417 5.89425 59.7952 6.54752C58.4487 7.20079 57.1805 8.22523 55.9907 9.62085L51.6313 14.4758L60.8801 24.8037C61.8733 25.8913 62.6148 27.1273 63.1048 28.5118C63.5914 29.8963 63.8347 31.3012 63.8347 32.7265C63.8347 35.6253 62.9831 38.0231 61.28 39.9198C59.5769 41.8165 57.4255 42.763 54.8258 42.7593C53.5427 42.7593 52.2912 42.5422 51.0713 42.1079C49.8515 41.6736 48.7533 40.9127 47.7768 39.8252L40.4227 31.6742C39.8461 31.0321 39.1096 30.711 38.213 30.711C37.3131 30.711 36.5749 31.0321 35.9983 31.6742L16.6258 53.2487C16.1225 53.8129 15.7443 54.4532 15.4909 55.1695C15.2376 55.8859 15.111 56.6097 15.111 57.3409C15.111 58.6549 15.4893 59.7368 16.2459 60.5868C16.9991 61.4405 17.9656 61.8674 19.1455 61.8674C19.7987 61.8674 20.4686 61.7041 21.1552 61.3774C21.8418 61.0471 22.3967 60.6462 22.82 60.1748L36.8932 44.502C37.3598 43.9823 37.9297 43.6984 38.603 43.6501C39.2762 43.6019 39.8861 43.8858 40.4327 44.502C40.966 45.0959 41.2326 45.7528 41.2326 46.4729C41.2326 47.193 40.966 47.85 40.4327 48.4439L26.3845 64.1167C25.8779 64.6809 25.498 65.3212 25.2447 66.0375C24.9947 66.7576 24.8697 67.4814 24.8697 68.2089C24.8697 69.4523 25.263 70.512 26.0496 71.388C26.8361 72.264 27.7877 72.7038 28.9042 72.7075C29.5575 72.7075 30.2274 72.5424 30.9139 72.212C31.6005 71.8817 32.1555 71.4827 32.5787 71.015L47.8068 54.0894C48.2734 53.5661 48.8416 53.2803 49.5115 53.232C50.1815 53.1838 50.7914 53.4677 51.3413 54.0839C51.8746 54.6777 52.1412 55.3347 52.1412 56.0548C52.1412 56.7749 51.8746 57.4318 51.3413 58.0257L36.1433 74.9847C35.7033 75.4561 35.34 76.0741 35.0534 76.8387C34.7668 77.6033 34.6235 78.3494 34.6235 79.0769C34.6235 80.3166 35.0184 81.3745 35.8083 82.2504C36.5982 83.1338 37.5498 83.5755 38.6629 83.5755C39.3162 83.5755 39.9661 83.4345 40.6127 83.1524C41.2593 82.8703 41.8325 82.4472 42.3325 81.883L57.5655 64.9574C58.0321 64.4341 58.6004 64.1483 59.2703 64.1C59.9402 64.0555 60.5518 64.3394 61.105 64.9518C61.635 65.5457 61.8999 66.2027 61.8999 66.9228C61.8999 67.6429 61.6333 68.2998 61.1 68.8937L45.877 85.8471C45.3737 86.4113 44.9955 87.0887 44.7422 87.8793C44.4889 88.6699 44.3622 89.3918 44.3622 90.0451C44.3622 91.3591 44.7772 92.4188 45.607 93.2242C46.4369 94.0297 47.3768 94.4324 48.4267 94.4324M48.3967 100C45.827 100 43.6273 98.9533 41.7975 96.8599C39.9678 94.7664 39.1645 92.1794 39.3879 89.0986C36.5549 89.1357 34.1969 88.1948 32.3138 86.2758C30.4307 84.3569 29.5358 81.677 29.6291 78.2362C26.5428 78.2733 24.1098 77.2897 22.3301 75.2854C20.5503 73.281 19.7404 70.642 19.9004 67.3682C17.1207 67.4053 14.7944 66.5331 12.9213 64.7514C11.0515 62.9772 10.1166 60.5052 10.1166 57.3353C10.1166 55.9063 10.3649 54.4773 10.8616 53.0483C11.3582 51.6155 12.0914 50.3573 13.0613 49.2734L32.5337 27.5876C34.0669 25.8839 35.9566 25.032 38.203 25.032C40.4494 25.032 42.3391 25.8857 43.8723 27.5931L51.1263 35.6717C51.5496 36.1654 52.0729 36.5718 52.6961 36.891C53.3194 37.2103 54.021 37.368 54.8009 37.3643C55.8707 37.3643 56.8156 36.9486 57.6355 36.1171C58.4554 35.2857 58.867 34.2019 58.8703 32.8657C58.8703 31.9971 58.727 31.2176 58.4404 30.5273C58.1538 29.8332 57.7905 29.2504 57.3505 28.779L40.1528 9.62641C38.9129 8.22709 37.6247 7.20079 36.2883 6.54752C34.9518 5.89425 33.4886 5.56762 31.8988 5.56762C30.329 5.56762 28.9025 5.89425 27.6194 6.54752C26.3395 7.20079 25.0714 8.22709 23.8149 9.62641L8.59185 26.6077C6.8454 28.5489 5.72222 30.9188 5.22228 33.7175C4.72235 36.5162 4.95065 39.1886 5.90719 41.7349C6.09384 42.455 6.01051 43.1509 5.65723 43.8227C5.30394 44.4946 4.804 44.9214 4.15742 45.1033C3.51084 45.2852 2.86926 45.1887 2.23267 44.8138C1.59609 44.4389 1.19614 43.8877 1.03283 43.1602C-0.0437005 39.5598 -0.27867 35.9241 0.327918 32.2532C0.934506 28.5823 2.50097 25.3401 5.02731 22.5266L20.1453 5.68454C21.8885 3.76185 23.7332 2.33283 25.6796 1.39747C27.626 0.465825 29.7308 0 31.9938 0C34.2569 0 36.3432 0.467681 38.253 1.40304C40.1661 2.33469 41.9858 3.76185 43.7123 5.68454L48.0617 10.5339L52.4212 5.68454C54.1643 3.76185 55.9924 2.33283 57.9054 1.39747C59.8185 0.465825 61.9066 0 64.1696 0C66.4327 0 68.5374 0.467681 70.4838 1.40304C72.4269 2.33469 74.26 3.76185 75.9831 5.68454L94.6107 26.4239C96.3338 28.3429 97.6636 30.4976 98.6002 32.8879C99.5367 35.2783 100.003 37.7336 100 40.2539C100 42.7779 99.5334 45.1033 98.6002 47.2301C97.667 49.3569 96.3371 51.3836 94.6107 53.31L55.6307 96.6817C54.5942 97.8398 53.4644 98.6823 52.2412 99.2094C51.0213 99.7365 49.7432 100 48.3967 100Z"/>
</mask>
<path d="M52.0962 92.7454L53.5843 94.0816L53.5844 94.0815L52.0962 92.7454ZM91.0712 49.3347L89.583 47.9984L89.5829 47.9985L91.0712 49.3347ZM93.9808 45.0476L95.792 45.8959L95.7952 45.889L93.9808 45.0476ZM93.9808 35.0704L95.8326 34.3149L95.8319 34.3132L93.9808 35.0704ZM91.0712 30.505L89.583 31.8412L89.5893 31.8482L89.5956 31.855L91.0712 30.505ZM72.3236 9.62641L70.8249 10.9507L70.8301 10.9567L70.8355 10.9626L72.3236 9.62641ZM68.5091 6.54752L67.6128 8.33545L67.6146 8.33637L68.5091 6.54752ZM55.9907 9.62085L57.4788 10.9571L57.496 10.938L57.5127 10.9184L55.9907 9.62085ZM51.6313 14.4758L50.1431 13.1396L48.9449 14.474L50.1414 15.81L51.6313 14.4758ZM60.8801 24.8037L59.3902 26.138L59.3967 26.1452L59.4032 26.1525L60.8801 24.8037ZM63.1048 28.5118L64.9916 27.8486L64.9902 27.8446L63.1048 28.5118ZM54.8258 42.7593L54.8287 40.7593H54.8258V42.7593ZM47.7768 39.8252L49.2649 38.4889L49.2617 38.4854L47.7768 39.8252ZM40.4227 31.6742L38.9346 33.0104L38.9378 33.0139L40.4227 31.6742ZM16.6258 53.2487L15.1377 51.9125L15.1333 51.9174L16.6258 53.2487ZM15.111 57.3409L17.111 57.3409L15.111 57.3409ZM16.2459 60.5868L17.7456 59.2636L17.7398 59.2571L16.2459 60.5868ZM21.1552 61.3774L22.0144 63.1835L22.0224 63.1797L21.1552 61.3774ZM22.82 60.1748L21.3319 58.8386L21.3319 58.8386L22.82 60.1748ZM36.8932 44.502L38.3813 45.8382L38.3813 45.8382L36.8932 44.502ZM40.4327 44.502L38.9366 45.8292L38.9446 45.8382L40.4327 44.502ZM40.4327 48.4439L38.9446 47.1076L38.9434 47.1089L40.4327 48.4439ZM26.3845 64.1167L27.8727 65.4529L27.8738 65.4516L26.3845 64.1167ZM25.2447 66.0375L23.3591 65.3708L23.3553 65.3816L25.2447 66.0375ZM28.9042 72.7075L28.8976 74.7075H28.9042V72.7075ZM32.5787 71.015L34.0616 72.3571L34.0655 72.3527L32.5787 71.015ZM47.8068 54.0894L49.2936 55.4271L49.2996 55.4204L47.8068 54.0894ZM51.3413 54.0839L49.8492 55.4156L49.8532 55.4201L51.3413 54.0839ZM51.3413 58.0257L49.8532 56.6895L49.8519 56.691L51.3413 58.0257ZM36.1433 74.9847L37.6054 76.3493L37.6192 76.3345L37.6327 76.3195L36.1433 74.9847ZM35.8083 82.2504L37.2992 80.9173L37.2936 80.9111L35.8083 82.2504ZM42.3325 81.883L40.8459 80.545L40.8407 80.5508L40.8356 80.5566L42.3325 81.883ZM57.5655 64.9574L59.0521 66.2954L59.0583 66.2884L57.5655 64.9574ZM59.2703 64.1L59.1376 62.1044L59.1266 62.1052L59.2703 64.1ZM61.105 64.9518L62.5973 63.6202L62.5891 63.6112L61.105 64.9518ZM45.877 85.8471L44.3889 84.5109L44.3845 84.5158L45.877 85.8471ZM39.3879 89.0986L41.3826 89.2432L41.5401 87.0702L39.3617 87.0988L39.3879 89.0986ZM29.6291 78.2362L31.6284 78.2904L31.6848 76.2113L29.6051 76.2363L29.6291 78.2362ZM19.9004 67.3682L21.898 67.4658L22.0019 65.34L19.8737 65.3684L19.9004 67.3682ZM12.9213 64.7514L14.2997 63.3023L14.2979 63.3006L12.9213 64.7514ZM10.8616 53.0483L12.7507 53.7048L12.7513 53.7033L10.8616 53.0483ZM13.0613 49.2734L11.5731 47.9372L11.5709 47.9397L13.0613 49.2734ZM32.5337 27.5876L31.0471 26.2497L31.0456 26.2513L32.5337 27.5876ZM43.8723 27.5931L42.3842 28.9294L42.3842 28.9294L43.8723 27.5931ZM51.1263 35.6717L52.6446 34.3699L52.6297 34.3525L52.6144 34.3355L51.1263 35.6717ZM54.8009 37.3643L54.8009 35.3643L54.7913 35.3643L54.8009 37.3643ZM58.8703 32.8657L60.8703 32.8706V32.8657H58.8703ZM58.4404 30.5273L56.5918 31.2906L56.5932 31.2941L58.4404 30.5273ZM57.3505 28.779L55.8624 30.1153L55.8753 30.1296L55.8884 30.1436L57.3505 28.779ZM40.1528 9.62641L38.6558 10.9528L38.6646 10.9626L40.1528 9.62641ZM27.6194 6.54752L26.712 4.7652L26.7101 4.76616L27.6194 6.54752ZM23.8149 9.62641L22.3268 8.29018L22.3257 8.2914L23.8149 9.62641ZM8.59185 26.6077L10.0787 27.9453L10.0811 27.9427L8.59185 26.6077ZM5.90719 41.7349L7.84322 41.2331L7.81666 41.1306L7.77944 41.0315L5.90719 41.7349ZM1.03283 43.1602L2.98426 42.7221L2.96898 42.6541L2.949 42.5872L1.03283 43.1602ZM5.02731 22.5266L6.51542 23.8628L6.51564 23.8626L5.02731 22.5266ZM20.1453 5.68454L18.6636 4.3412L18.657 4.34855L20.1453 5.68454ZM25.6796 1.39747L24.8161 -0.406525L24.8134 -0.405182L25.6796 1.39747ZM38.253 1.40304L37.3733 3.19918L37.3773 3.20116L38.253 1.40304ZM43.7123 5.68454L45.2012 4.34916L45.2004 4.34831L43.7123 5.68454ZM48.0617 10.5339L46.5728 11.8693L48.06 13.5274L49.5491 11.871L48.0617 10.5339ZM52.4212 5.68454L50.9394 4.3412L50.9338 4.34746L52.4212 5.68454ZM57.9054 1.39747L57.0298 -0.400645L57.027 -0.399268L57.9054 1.39747ZM70.4838 1.40304L69.6175 3.2057L69.6191 3.20646L70.4838 1.40304ZM75.9831 5.68454L74.4937 7.01934L74.4952 7.02097L75.9831 5.68454ZM94.6107 26.4239L96.0988 25.0877L96.0986 25.0875L94.6107 26.4239ZM100 40.2539L98 40.2512V40.2539H100ZM94.6107 53.31L96.0982 54.6468L96.1001 54.6448L94.6107 53.31ZM55.6307 96.6817L54.1432 95.3448L54.1405 95.3479L55.6307 96.6817ZM52.2412 99.2094L51.4497 97.3727L51.4479 97.3735L52.2412 99.2094ZM48.4217 96.4324C49.4171 96.4324 50.3794 96.182 51.2906 95.7485L49.5722 92.1364C49.1103 92.3562 48.7327 92.4324 48.4217 92.4324V96.4324ZM51.2906 95.7485C52.1691 95.3306 52.9529 94.7848 53.5843 94.0816L50.6081 91.4092C50.3929 91.6488 50.0669 91.9011 49.5722 92.1364L51.2906 95.7485ZM53.5844 94.0815L92.5594 50.6708L89.5829 47.9985L50.608 91.4093L53.5844 94.0815ZM92.5593 50.6709C93.9254 49.1495 95.013 47.5591 95.7919 45.8959L92.1696 44.1993C91.5821 45.4536 90.7299 46.7212 89.583 47.9984L92.5593 50.6709ZM95.7952 45.889C96.6071 44.1382 97.0006 42.2408 97.0006 40.2261H93.0006C93.0006 41.7078 92.7143 43.0247 92.1664 44.2062L95.7952 45.889ZM97.0006 40.2261C97.0006 38.1921 96.6087 36.2173 95.8326 34.3149L92.129 35.8259C92.7127 37.2567 93.0006 38.719 93.0006 40.2261H97.0006ZM95.8319 34.3132C95.0566 32.4179 93.9573 30.6967 92.5467 29.1549L89.5956 31.855C90.698 33.06 91.5385 34.3824 92.1297 35.8276L95.8319 34.3132ZM92.5593 29.1688L73.8117 8.29018L70.8355 10.9626L89.583 31.8412L92.5593 29.1688ZM73.8223 8.30208C72.4613 6.76183 70.9934 5.55366 69.4035 4.75868L67.6146 8.33637C68.6377 8.84792 69.7129 9.69234 70.8249 10.9507L73.8223 8.30208ZM69.4054 4.75959C67.7994 3.95455 66.0419 3.56762 64.1696 3.56762V7.56762C65.4769 7.56762 66.6124 7.83396 67.6128 8.33545L69.4054 4.75959ZM64.1696 3.56762C62.3126 3.56762 60.5541 3.95637 58.9222 4.74811L60.6682 8.34693C61.7293 7.83214 62.8871 7.56762 64.1696 7.56762V3.56762ZM58.9222 4.74811C57.2777 5.54599 55.7985 6.76357 54.4687 8.32329L57.5127 10.9184C58.5626 9.68689 59.6198 8.85559 60.6682 8.34693L58.9222 4.74811ZM54.5026 8.28462L50.1431 13.1396L53.1194 15.812L57.4788 10.9571L54.5026 8.28462ZM50.1414 15.81L59.3902 26.138L62.37 23.4695L53.1212 13.1416L50.1414 15.81ZM59.4032 26.1525C60.2166 27.043 60.8189 28.0475 61.2193 29.179L64.9902 27.8446C64.4108 26.2071 63.53 24.7395 62.3569 23.455L59.4032 26.1525ZM61.2179 29.175C61.6319 30.3527 61.8347 31.5337 61.8347 32.7265H65.8347C65.8347 31.0686 65.5509 29.4398 64.9916 27.8486L61.2179 29.175ZM61.8347 32.7265C61.8347 35.2045 61.12 37.1045 59.7919 38.5836L62.7681 41.2561C64.8462 38.9418 65.8347 36.0462 65.8347 32.7265H61.8347ZM59.7919 38.5836C58.4773 40.0476 56.8725 40.7622 54.8287 40.7593L54.823 44.7593C57.9785 44.7638 60.6765 43.5854 62.7681 41.2561L59.7919 38.5836ZM54.8258 40.7593C53.7734 40.7593 52.7486 40.5821 51.7421 40.2237L50.4006 43.9921C51.8337 44.5023 53.312 44.7593 54.8258 44.7593V40.7593ZM51.7421 40.2237C50.8747 39.9149 50.0479 39.361 49.2649 38.489L46.2886 41.1614C47.4587 42.4644 48.8283 43.4323 50.4006 43.9921L51.7421 40.2237ZM49.2617 38.4854L41.9077 30.3344L38.9378 33.0139L46.2918 41.1649L49.2617 38.4854ZM41.9108 30.338C40.9385 29.2551 39.6523 28.711 38.213 28.711V32.711C38.5668 32.711 38.7538 32.809 38.9346 33.0104L41.9108 30.338ZM38.213 28.711C36.7729 28.711 35.4841 29.2533 34.5102 30.338L37.4864 33.0104C37.6657 32.8108 37.8534 32.711 38.213 32.711V28.711ZM34.5102 30.338L15.1377 51.9125L18.1139 54.5849L37.4864 33.0104L34.5102 30.338ZM15.1333 51.9174C14.4562 52.6765 13.9448 53.5427 13.6054 54.5028L17.3765 55.8363C17.5437 55.3636 17.7889 54.9493 18.1183 54.5801L15.1333 51.9174ZM13.6054 54.5028C13.2793 55.4248 13.111 56.3737 13.111 57.3409L17.111 57.3409C17.111 56.8456 17.196 56.347 17.3765 55.8363L13.6054 54.5028ZM13.111 57.3409C13.111 59.0644 13.6194 60.6442 14.7519 61.9166L17.7398 59.2571C17.3591 58.8295 17.111 58.2453 17.111 57.3409H13.111ZM14.7461 61.91C15.8945 63.2115 17.4155 63.8674 19.1455 63.8674V59.8674C18.5157 59.8674 18.1037 59.6695 17.7456 59.2636L14.7461 61.91ZM19.1455 63.8674C20.141 63.8674 21.1032 63.617 22.0144 63.1835L20.296 59.5714C19.8341 59.7912 19.4565 59.8674 19.1455 59.8674V63.8674ZM22.0224 63.1797C22.8978 62.7585 23.6787 62.212 24.3081 61.5111L21.3319 58.8386C21.1147 59.0805 20.7858 59.3357 20.2881 59.5752L22.0224 63.1797ZM24.3081 61.5111L38.3813 45.8382L35.4051 43.1658L21.3319 58.8386L24.3081 61.5111ZM38.3813 45.8382C38.5151 45.6892 38.609 45.6548 38.7459 45.645L38.46 41.6553C37.2504 41.7419 36.2045 42.2755 35.4051 43.1658L38.3813 45.8382ZM38.7459 45.645C38.7515 45.6446 38.7462 45.6454 38.7347 45.6433C38.7231 45.6412 38.7176 45.6384 38.7212 45.6401C38.7288 45.6436 38.8053 45.6813 38.9366 45.8292L41.9289 43.1747C41.0707 42.2074 39.8915 41.5527 38.46 41.6553L38.7459 45.645ZM38.9446 45.8382C39.1868 46.108 39.2326 46.3009 39.2326 46.4729H43.2326C43.2326 45.2047 42.7451 44.0837 41.9208 43.1658L38.9446 45.8382ZM39.2326 46.4729C39.2326 46.6449 39.1868 46.8379 38.9446 47.1076L41.9208 49.7801C42.7451 48.8621 43.2326 47.7411 43.2326 46.4729H39.2326ZM38.9434 47.1089L24.8952 62.7818L27.8738 65.4516L41.922 49.7788L38.9434 47.1089ZM24.8964 62.7805C24.2144 63.54 23.6996 64.4079 23.3591 65.3708L27.1303 66.7043C27.2964 66.2344 27.5415 65.8217 27.8727 65.4529L24.8964 62.7805ZM23.3553 65.3816C23.0356 66.3025 22.8697 67.2476 22.8697 68.2089H26.8697C26.8697 67.7152 26.9538 67.2127 27.1341 66.6934L23.3553 65.3816ZM22.8697 68.2089C22.8697 69.9153 23.4256 71.4593 24.5615 72.7242L27.5377 70.0518C27.1004 69.5648 26.8697 68.9893 26.8697 68.2089H22.8697ZM24.5615 72.7242C25.7026 73.9951 27.1817 74.7018 28.8976 74.7075L28.9109 70.7076C28.3937 70.7058 27.9697 70.5329 27.5377 70.0518L24.5615 72.7242ZM28.9042 74.7075C29.9037 74.7075 30.8688 74.4532 31.7811 74.0143L30.0468 70.4098C29.5859 70.6315 29.2112 70.7075 28.9042 70.7075V74.7075ZM31.7811 74.0143C32.6535 73.5945 33.4327 73.0519 34.0616 72.3571L31.0959 69.6729C30.8782 69.9134 30.5476 70.1688 30.0468 70.4098L31.7811 74.0143ZM34.0655 72.3527L49.2936 55.4271L46.32 52.7517L31.0919 69.6773L34.0655 72.3527ZM49.2996 55.4204C49.4368 55.2664 49.529 55.2359 49.6552 55.2268L49.3679 51.2372C48.1542 51.3246 47.1099 51.8657 46.3139 52.7585L49.2996 55.4204ZM49.6552 55.2268C49.659 55.2266 49.6526 55.2273 49.6405 55.225C49.6284 55.2228 49.6231 55.2199 49.6273 55.2219C49.6365 55.2262 49.7152 55.2654 49.8492 55.4156L52.8334 52.7521C51.9758 51.7911 50.7985 51.1341 49.3679 51.2372L49.6552 55.2268ZM49.8532 55.4201C50.0954 55.6898 50.1412 55.8828 50.1412 56.0548H54.1412C54.1412 54.7866 53.6537 53.6656 52.8294 52.7476L49.8532 55.4201ZM50.1412 56.0548C50.1412 56.2268 50.0954 56.4197 49.8532 56.6895L52.8294 59.362C53.6537 58.444 54.1412 57.323 54.1412 56.0548H50.1412ZM49.8519 56.691L34.6538 73.6499L37.6327 76.3195L52.8307 59.3605L49.8519 56.691ZM34.6811 73.6201C34.0214 74.327 33.5358 75.1893 33.1807 76.1367L36.9262 77.5407C37.1443 76.9588 37.3852 76.5852 37.6054 76.3493L34.6811 73.6201ZM33.1807 76.1367C32.8201 77.0985 32.6235 78.0821 32.6235 79.0769H36.6235C36.6235 78.6167 36.7134 78.1082 36.9262 77.5407L33.1807 76.1367ZM32.6235 79.0769C32.6235 80.7837 33.1837 82.3264 34.323 83.5898L37.2936 80.9111C36.8531 80.4226 36.6235 79.8495 36.6235 79.0769H32.6235ZM34.3174 83.5836C35.4591 84.8603 36.9403 85.5755 38.6629 85.5755V81.5755C38.1592 81.5755 37.7374 81.4073 37.2992 80.9173L34.3174 83.5836ZM38.6629 85.5755C39.6128 85.5755 40.534 85.3688 41.4125 84.9855L39.8129 81.3193C39.3982 81.5002 39.0195 81.5755 38.6629 81.5755V85.5755ZM41.4125 84.9855C42.3435 84.5793 43.1501 83.9759 43.8293 83.2094L40.8356 80.5566C40.515 80.9184 40.1751 81.1613 39.8129 81.3193L41.4125 84.9855ZM43.8191 83.2209L59.0521 66.2953L56.0789 63.6195L40.8459 80.545L43.8191 83.2209ZM59.0583 66.2884C59.1956 66.1344 59.2877 66.1039 59.414 66.0948L59.1266 62.1052C57.913 62.1926 56.8686 62.7337 56.0727 63.6265L59.0583 66.2884ZM59.403 66.0956C59.4082 66.0952 59.4039 66.0959 59.3945 66.0942C59.3851 66.0924 59.3824 66.0904 59.3892 66.0936C59.4034 66.1002 59.4851 66.1421 59.6209 66.2925L62.5891 63.6112C61.7295 62.6596 60.5579 62.01 59.1376 62.1044L59.403 66.0956ZM59.6128 66.2834C59.8528 66.5525 59.8999 66.7469 59.8999 66.9228H63.8999C63.8999 65.6585 63.4171 64.539 62.5973 63.6203L59.6128 66.2834ZM59.8999 66.9228C59.8999 67.0948 59.8542 67.2877 59.6119 67.5575L62.5882 70.2299C63.4124 69.312 63.8999 68.191 63.8999 66.9228H59.8999ZM59.6119 67.5575L44.3889 84.5109L47.3651 87.1834L62.5882 70.2299L59.6119 67.5575ZM44.3845 84.5158C43.6773 85.3086 43.1678 86.2383 42.8375 87.2691L46.6468 88.4895C46.8231 87.9391 47.0701 87.5141 47.3695 87.1785L44.3845 84.5158ZM42.8375 87.2691C42.5373 88.2062 42.3622 89.1374 42.3622 90.0451H46.3622C46.3622 89.6463 46.4404 89.1336 46.6468 88.4895L42.8375 87.2691ZM42.3622 90.0451C42.3622 91.8193 42.9419 93.4247 44.2141 94.6594L47 91.789C46.6124 91.4128 46.3622 90.8988 46.3622 90.0451H42.3622ZM44.2141 94.6594C45.3758 95.7869 46.8017 96.4324 48.4267 96.4324L48.4267 92.4324C47.9519 92.4324 47.4981 92.2725 47 91.789L44.2141 94.6594ZM48.3967 98C46.4554 98 44.7885 97.2428 43.3034 95.5437L40.2917 98.1761C42.4661 100.664 45.1986 102 48.3967 102V98ZM43.3034 95.5437C41.8657 93.8988 41.1932 91.8561 41.3826 89.2432L37.3931 88.954C37.1359 92.5026 38.0698 95.6341 40.2917 98.1761L43.3034 95.5437ZM39.3617 87.0988C37.0418 87.1292 35.2194 86.3814 33.7413 84.875L30.8863 87.6766C33.1743 90.0082 36.068 91.1423 39.4141 91.0984L39.3617 87.0988ZM33.7413 84.875C32.3375 83.4445 31.5454 81.3489 31.6284 78.2904L27.6299 78.182C27.5262 82.0051 28.5238 85.2692 30.8863 87.6766L33.7413 84.875ZM29.6051 76.2363C27.0013 76.2677 25.1599 75.4601 23.8256 73.9574L20.8346 76.6133C23.0598 79.1193 26.0844 80.279 29.6532 80.236L29.6051 76.2363ZM23.8256 73.9574C22.4674 72.4279 21.7575 70.3405 21.898 67.4658L17.9028 67.2706C17.7233 70.9434 18.6331 74.1341 20.8346 76.6133L23.8256 73.9574ZM19.8737 65.3684C17.573 65.3991 15.764 64.6951 14.2997 63.3023L11.5429 66.2006C13.8248 68.371 16.6685 69.4115 19.9271 69.368L19.8737 65.3684ZM14.2979 63.3006C12.9145 61.9879 12.1166 60.0915 12.1166 57.3353H8.11665C8.11665 60.9188 9.18856 63.9665 11.5446 66.2022L14.2979 63.3006ZM12.1166 57.3353C12.1166 56.1426 12.3232 54.9352 12.7507 53.7048L8.97237 52.3918C8.40674 54.0194 8.11665 55.67 8.11665 57.3353H12.1166ZM12.7513 53.7033C13.1648 52.5101 13.7661 51.485 14.5517 50.6071L11.5709 47.9397C10.4167 49.2295 9.55149 50.721 8.97185 52.3933L12.7513 53.7033ZM14.5494 50.6097L34.0219 28.9238L31.0456 26.2513L11.5732 47.9372L14.5494 50.6097ZM34.0204 28.9254C35.183 27.6334 36.5366 27.032 38.203 27.032V23.032C35.3766 23.032 32.9507 24.1343 31.0471 26.2497L34.0204 28.9254ZM38.203 27.032C39.8678 27.032 41.221 27.634 42.3842 28.9294L45.3604 26.2569C43.4572 24.1374 41.0309 23.032 38.203 23.032V27.032ZM42.3842 28.9294L49.6382 37.008L52.6144 34.3355L45.3604 26.2569L42.3842 28.9294ZM49.608 36.9736C50.2131 37.6793 50.9477 38.2426 51.7844 38.6712L53.6078 35.1109C53.198 34.901 52.8861 34.6515 52.6446 34.3699L49.608 36.9736ZM51.7844 38.6712C52.7239 39.1523 53.7472 39.3693 54.8104 39.3643L54.7913 35.3643C54.2947 35.3667 53.9149 35.2682 53.6078 35.1109L51.7844 38.6712ZM54.8009 39.3643C56.4577 39.3643 57.9017 38.6956 59.0595 37.5214L56.2114 34.7129C55.7295 35.2016 55.2837 35.3643 54.8009 35.3643V39.3643ZM59.0595 37.5214C60.301 36.2625 60.8659 34.6489 60.8703 32.8706L56.8703 32.8607C56.8681 33.7549 56.6097 34.3089 56.2114 34.7129L59.0595 37.5214ZM60.8703 32.8657C60.8703 31.776 60.69 30.7299 60.2875 29.7604L56.5932 31.2941C56.764 31.7054 56.8703 32.2182 56.8703 32.8657H60.8703ZM60.289 29.7639C59.9255 28.8837 59.441 28.0877 58.8127 27.4144L55.8884 30.1436C56.1399 30.4131 56.382 30.7826 56.5918 31.2906L60.289 29.7639ZM58.8386 27.4428L41.6409 8.29018L38.6646 10.9626L55.8624 30.1153L58.8386 27.4428ZM41.6497 8.30008C40.2793 6.75342 38.7899 5.54419 37.1665 4.75068L35.41 8.34436C36.4596 8.85739 37.5465 9.70075 38.6558 10.9527L41.6497 8.30008ZM37.1665 4.75068C35.538 3.95466 33.7717 3.56762 31.8988 3.56762V7.56762C33.2056 7.56762 34.3655 7.83385 35.41 8.34436L37.1665 4.75068ZM31.8988 3.56762C30.0426 3.56762 28.301 3.95624 26.712 4.76521L28.5268 8.32984C29.5041 7.83227 30.6154 7.56762 31.8988 7.56762V3.56762ZM26.7101 4.76616C25.1557 5.55959 23.6993 6.76167 22.3268 8.29018L25.303 10.9626C26.4435 9.6925 27.5234 8.84198 28.5286 8.32888L26.7101 4.76616ZM22.3257 8.2914L7.10264 25.2726L10.0811 27.9427L25.3041 10.9614L22.3257 8.2914ZM7.105 25.27C5.0871 27.513 3.81294 30.2338 3.25345 33.3658L7.19112 34.0692C7.6315 31.6039 8.60371 29.5848 10.0787 27.9453L7.105 25.27ZM3.25345 33.3658C2.69327 36.5017 2.94611 39.5398 4.03495 42.4382L7.77944 41.0315C6.95519 38.8374 6.75143 36.5306 7.19112 34.0692L3.25345 33.3658ZM3.97117 42.2367C4.03021 42.4645 4.01402 42.6504 3.88706 42.8919L7.42739 44.7536C8.007 43.6514 8.15747 42.4455 7.84322 41.2331L3.97117 42.2367ZM3.88706 42.8919C3.75283 43.1471 3.6626 43.1649 3.61586 43.178L4.69898 47.0286C5.94541 46.678 6.85505 45.842 7.42739 44.7536L3.88706 42.8919ZM3.61586 43.178C3.54921 43.1967 3.46641 43.2193 3.24757 43.0904L1.21778 46.5371C2.2721 47.158 3.47246 47.3736 4.69898 47.0286L3.61586 43.178ZM3.24757 43.0904C3.09239 42.999 3.02775 42.9158 2.98426 42.7221L-0.918609 43.5982C-0.635468 44.8595 0.0997861 45.8787 1.21778 46.5371L3.24757 43.0904ZM2.949 42.5872C1.95871 39.2753 1.74467 35.947 2.30116 32.5793L-1.64532 31.9272C-2.30201 35.9013 -2.04611 39.8443 -0.883351 43.7331L2.949 42.5872ZM2.30116 32.5793C2.84454 29.2909 4.23936 26.3976 6.51542 23.8628L3.53919 21.1904C0.76258 24.2826 -0.97553 27.8737 -1.64532 31.9272L2.30116 32.5793ZM6.51564 23.8626L21.6337 7.02052L18.657 4.34855L3.53897 21.1906L6.51564 23.8626ZM21.6271 7.02786C23.2308 5.25887 24.8743 4.00344 26.5459 3.20013L24.8134 -0.405182C22.5922 0.662224 20.5461 2.26484 18.6636 4.34121L21.6271 7.02786ZM26.5431 3.20147C28.2068 2.40515 30.0147 2 31.9938 2V-2C29.4469 -2 27.0453 -1.4735 24.8161 -0.406523L26.5431 3.20147ZM31.9938 2C33.9719 2 35.7548 2.40649 37.3733 3.19918L39.1327 -0.393096C36.9317 -1.47113 34.5418 -2 31.9938 -2V2ZM37.3773 3.20116C39.0144 3.99839 40.6342 5.25003 42.2242 7.02077L45.2004 4.34831C43.3375 2.27368 41.3178 0.670986 39.1287 -0.395075L37.3773 3.20116ZM42.2234 7.01992L46.5728 11.8693L49.5506 9.19856L45.2012 4.34916L42.2234 7.01992ZM49.5491 11.871L53.9085 7.02162L50.9338 4.34746L46.5744 9.19686L49.5491 11.871ZM53.9029 7.02786C55.5117 5.25326 57.1428 3.99662 58.7839 3.19421L57.027 -0.399268C54.8419 0.669051 52.8168 2.27044 50.9394 4.34121L53.9029 7.02786ZM58.7811 3.19559C60.4042 2.40516 62.1903 2 64.1696 2V-2C61.6229 -2 59.2329 -1.47351 57.0298 -0.400642L58.7811 3.19559ZM64.1696 2C66.1475 2 67.9544 2.40648 69.6175 3.2057L71.3501 -0.399615C69.1204 -1.47112 66.7178 -2 64.1696 -2V2ZM69.6191 3.20646C71.2832 4.00433 72.912 5.25443 74.4937 7.01934L77.4725 4.34974C75.608 2.26928 73.5706 0.665046 71.3485 -0.400379L69.6191 3.20646ZM74.4952 7.02097L93.1228 27.7604L96.0986 25.0875L77.471 4.34811L74.4952 7.02097ZM93.1226 27.7602C94.6864 29.5018 95.8892 31.4512 96.738 33.6175L100.462 32.1583C99.438 29.5439 97.9812 27.184 96.0988 25.0877L93.1226 27.7602ZM96.738 33.6175C97.5849 35.779 98.003 37.9863 98 40.2512L102 40.2565C102.004 37.481 101.489 34.7775 100.462 32.1583L96.738 33.6175ZM98 40.2539C98 42.5255 97.5814 44.5743 96.7687 46.4265L100.432 48.0337C101.485 45.6323 102 43.0303 102 40.2539H98ZM96.7687 46.4265C95.9298 48.3385 94.7222 50.1888 93.1213 51.9752L96.1001 54.6448C97.952 52.5783 99.4042 50.3753 100.432 48.0337L96.7687 46.4265ZM93.1232 51.9731L54.1432 95.3448L57.1183 98.0186L96.0982 54.6468L93.1232 51.9731ZM54.1405 95.3479C53.2655 96.3254 52.3653 96.9781 51.4497 97.3727L53.0326 101.046C54.5634 100.387 55.9229 99.3541 57.121 98.0156L54.1405 95.3479ZM51.4479 97.3735C50.481 97.7912 49.473 98 48.3967 98V102C50.0133 102 51.5617 101.682 53.0345 101.045L51.4479 97.3735Z" fill="white" mask="url(#path-1-inside-1_64_2)"/>
</svg>
