<svg width="112" height="100" viewBox="0 0 112 100" fill="none" xmlns="http://www.w3.org/2000/svg">
<mask id="path-1-inside-1_64_2" fill="white">
<path d="M53.9257 94.4324C54.6532 94.4324 55.3992 94.2691 56.1639 93.9424C56.9285 93.6158 57.5465 93.2168 58.0179 92.7454L101.423 49.3347C102.822 47.9353 103.902 46.5063 104.663 45.0476C105.421 43.5815 105.799 41.9743 105.799 40.2261C105.799 38.4555 105.421 36.737 104.663 35.0704C103.902 33.4001 102.822 31.8783 101.423 30.505L80.5445 9.62641C79.1674 8.22709 77.7514 7.20079 76.2964 6.54752C74.8451 5.89425 73.2342 5.56762 71.4637 5.56762C69.7155 5.56762 68.0916 5.89425 66.592 6.54752C65.0925 7.20079 63.6802 8.22523 62.3551 9.62085L57.5001 14.4758L67.8002 24.8037C68.9063 25.8913 69.7322 27.1273 70.2778 28.5118C70.8197 29.8963 71.0907 31.3012 71.0907 32.7265C71.0907 35.6253 70.1423 38.0231 68.2456 39.9198C66.3489 41.8165 63.953 42.763 61.0578 42.7593C59.6288 42.7593 58.235 42.5422 56.8765 42.1079C55.518 41.6736 54.295 40.9127 53.2075 39.8252L45.0175 31.6742C44.3754 31.0321 43.5551 30.711 42.5566 30.711C41.5544 30.711 40.7323 31.0321 40.0902 31.6742L18.5156 53.2487C17.9552 53.8129 17.5339 54.4532 17.2518 55.1695C16.9697 55.8859 16.8286 56.6097 16.8286 57.3409C16.8286 58.6549 17.2499 59.7368 18.0925 60.5868C18.9313 61.4405 20.0078 61.8674 21.3217 61.8674C22.0492 61.8674 22.7953 61.7041 23.5599 61.3774C24.3245 61.0471 24.9425 60.6462 25.4139 60.1748L41.0868 44.502C41.6064 43.9823 42.2411 43.6984 42.9909 43.6501C43.7407 43.6019 44.4199 43.8858 45.0286 44.502C45.6225 45.0959 45.9194 45.7528 45.9194 46.4729C45.9194 47.193 45.6225 47.85 45.0286 48.4439L29.3836 64.1167C28.8194 64.6809 28.3963 65.3212 28.1142 66.0375C27.8358 66.7576 27.6966 67.4814 27.6966 68.2089C27.6966 69.4523 28.1346 70.512 29.0106 71.388C29.8866 72.264 30.9463 72.7038 32.1897 72.7075C32.9172 72.7075 33.6633 72.5424 34.4279 72.212C35.1925 71.8817 35.8105 71.4827 36.2819 71.015L53.2409 54.0894C53.7605 53.5661 54.3934 53.2803 55.1394 53.232C55.8855 53.1838 56.5647 53.4677 57.1772 54.0839C57.7711 54.6777 58.068 55.3347 58.068 56.0548C58.068 56.7749 57.7711 57.4318 57.1772 58.0257L40.2516 74.9847C39.7617 75.4561 39.3571 76.0741 39.0379 76.8387C38.7187 77.6033 38.5591 78.3494 38.5591 79.0769C38.5591 80.3166 38.9989 81.3745 39.8786 82.2504C40.7583 83.1338 41.818 83.5755 43.0577 83.5755C43.7852 83.5755 44.509 83.4345 45.2291 83.1524C45.9491 82.8703 46.5876 82.4472 47.1443 81.883L64.1089 64.9574C64.6285 64.4341 65.2614 64.1483 66.0074 64.1C66.7535 64.0555 67.4346 64.3394 68.0507 64.9518C68.6409 65.5457 68.936 66.2027 68.936 66.9228C68.936 67.6429 68.639 68.2998 68.0452 68.8937L51.0918 85.8471C50.5313 86.4113 50.11 87.0887 49.8279 87.8793C49.5458 88.6699 49.4048 89.3918 49.4048 90.0451C49.4048 91.3591 49.8669 92.4188 50.7911 93.2242C51.7153 94.0297 52.7621 94.4324 53.9313 94.4324M53.8978 100C51.0361 100 48.5863 98.9533 46.5486 96.8599C44.5108 94.7664 43.6163 92.1794 43.865 89.0986C40.71 89.1357 38.084 88.1948 35.9868 86.2758C33.8897 84.3569 32.8931 81.677 32.997 78.2362C29.5599 78.2733 26.8504 77.2897 24.8683 75.2854C22.8862 73.281 21.9843 70.642 22.1624 67.3682C19.0668 67.4053 16.476 66.5331 14.39 64.7514C12.3077 62.9772 11.2666 60.5052 11.2666 57.3353C11.2666 55.9063 11.5431 54.4773 12.0962 53.0483C12.6492 51.6155 13.4658 50.3573 14.5459 49.2734L36.2318 27.5876C37.9392 25.8839 40.0438 25.032 42.5455 25.032C45.0472 25.032 47.1517 25.8857 48.8592 27.5931L56.9378 35.6717C57.4092 36.1654 57.9919 36.5718 58.686 36.891C59.3801 37.2103 60.1614 37.368 61.03 37.3643C62.2214 37.3643 63.2737 36.9486 64.1868 36.1171C65.0999 35.2857 65.5583 34.2019 65.562 32.8657C65.562 31.9971 65.4024 31.2176 65.0832 30.5273C64.764 29.8332 64.3594 29.2504 63.8695 28.779L44.7168 9.62641C43.3361 8.22709 41.9015 7.20079 40.4131 6.54752C38.9247 5.89425 37.2952 5.56762 35.5247 5.56762C33.7765 5.56762 32.1878 5.89425 30.7588 6.54752C29.3335 7.20079 27.9212 8.22709 26.5219 9.62641L9.56846 26.6077C7.62351 28.5489 6.37265 30.9188 5.81589 33.7175C5.25913 36.5162 5.51338 39.1886 6.57865 41.7349C6.78651 42.455 6.69372 43.1509 6.30027 43.8227C5.90683 44.4946 5.35007 44.9214 4.62999 45.1033C3.90991 45.2852 3.1954 45.1887 2.48645 44.8138C1.77751 44.4389 1.3321 43.8877 1.15023 43.1602C-0.0486678 39.5598 -0.310346 35.9241 0.365192 32.2532C1.04073 28.5823 2.78525 25.3401 5.59875 22.5266L22.4352 5.68454C24.3765 3.76185 26.4309 2.33283 28.5986 1.39747C30.7662 0.465825 33.1102 0 35.6305 0C38.1508 0 40.4743 0.467681 42.6011 1.40304C44.7317 2.33469 46.7583 3.76185 48.681 5.68454L53.5248 10.5339L58.3798 5.68454C60.321 3.76185 62.3569 2.33283 64.4875 1.39747C66.618 0.465825 68.9434 0 71.4637 0C73.984 0 76.3279 0.467681 78.4956 1.40304C80.6595 2.33469 82.701 3.76185 84.62 5.68454L105.365 26.4239C107.284 28.3429 108.765 30.4976 109.808 32.8879C110.851 35.2783 111.371 37.7336 111.367 40.2539C111.367 42.7779 110.847 45.1033 109.808 47.2301C108.769 49.3569 107.288 51.3836 105.365 53.31L61.9542 96.6817C60.7998 97.8398 59.5416 98.6823 58.1793 99.2094C56.8208 99.7365 55.3974 100 53.8978 100Z"/>
</mask>
<path d="M58.0179 92.7454L59.4321 94.1596L59.4322 94.1595L58.0179 92.7454ZM101.423 49.3347L100.009 47.9205L100.009 47.9206L101.423 49.3347ZM104.663 45.0476L106.437 45.9726L106.44 45.9653L104.663 45.0476ZM104.663 35.0704L106.484 34.2431L106.483 34.2413L104.663 35.0704ZM101.423 30.505L100.009 31.9192L100.015 31.9258L100.022 31.9324L101.423 30.505ZM80.5445 9.62641L79.119 11.0292L79.1246 11.035L79.1303 11.0406L80.5445 9.62641ZM76.2964 6.54752L75.4755 8.37128L75.4772 8.37206L76.2964 6.54752ZM62.3551 9.62085L63.7693 11.0351L63.7876 11.0167L63.8054 10.9979L62.3551 9.62085ZM57.5001 14.4758L56.0859 13.0616L54.6736 14.4739L56.084 15.8881L57.5001 14.4758ZM67.8002 24.8037L66.3841 26.216L66.391 26.223L66.398 26.2299L67.8002 24.8037ZM70.2778 28.5118L72.1402 27.7828L72.1385 27.7785L70.2778 28.5118ZM61.0578 42.7593L61.0604 40.7593H61.0578V42.7593ZM53.2075 39.8252L54.6217 38.411L54.6183 38.4076L53.2075 39.8252ZM45.0175 31.6742L43.6033 33.0884L43.6067 33.0918L45.0175 31.6742ZM18.5156 53.2487L17.1014 51.8345L17.0968 51.8392L18.5156 53.2487ZM16.8286 57.3409L18.8286 57.3409L16.8286 57.3409ZM18.0925 60.5868L19.5191 59.1851L19.5129 59.1788L18.0925 60.5868ZM23.5599 61.3774L24.3456 63.2167L24.3531 63.2134L23.5599 61.3774ZM25.4139 60.1748L23.9997 58.7606L23.9997 58.7606L25.4139 60.1748ZM41.0868 44.502L42.501 45.9162L42.501 45.9162L41.0868 44.502ZM45.0286 44.502L43.6058 45.9076L43.6144 45.9162L45.0286 44.502ZM45.0286 48.4439L43.6144 47.0296L43.6132 47.0309L45.0286 48.4439ZM29.3836 64.1167L30.7978 65.5309L30.7991 65.5297L29.3836 64.1167ZM28.1142 66.0375L26.2533 65.3047L26.2488 65.3164L28.1142 66.0375ZM32.1897 72.7075L32.1837 74.7075H32.1897V72.7075ZM36.2819 71.015L37.6905 72.4348L37.6947 72.4306L36.2819 71.015ZM53.2409 54.0894L54.6537 55.505L54.6601 55.4986L53.2409 54.0894ZM57.1772 54.0839L55.7587 55.4938L55.763 55.4981L57.1772 54.0839ZM57.1772 58.0257L55.763 56.6115L55.7616 56.6129L57.1772 58.0257ZM40.2516 74.9847L41.6383 76.4259L41.6529 76.4119L41.6672 76.3975L40.2516 74.9847ZM39.8786 82.2504L41.2958 80.8392L41.2898 80.8332L39.8786 82.2504ZM47.1443 81.883L45.7317 80.4671L45.7262 80.4726L45.7208 80.4782L47.1443 81.883ZM64.1089 64.9574L65.5215 66.3733L65.5281 66.3666L64.1089 64.9574ZM66.0074 64.1L65.8882 62.1035L65.8783 62.1042L66.0074 64.1ZM68.0507 64.9518L69.4694 63.542L69.4607 63.5334L68.0507 64.9518ZM68.0452 68.8937L69.4594 70.3079L68.0452 68.8937ZM51.0918 85.8471L49.6775 84.4329L49.6729 84.4376L51.0918 85.8471ZM43.865 89.0986L45.8585 89.2595L46.035 87.0729L43.8415 87.0987L43.865 89.0986ZM32.997 78.2362L34.9961 78.2966L35.059 76.2138L32.9754 76.2363L32.997 78.2362ZM22.1624 67.3682L24.1595 67.4769L24.2756 65.3427L22.1384 65.3683L22.1624 67.3682ZM14.39 64.7514L15.6889 63.2306L15.6871 63.2291L14.39 64.7514ZM12.0962 53.0483L13.9614 53.7701L13.962 53.7685L12.0962 53.0483ZM14.5459 49.2734L13.1317 47.8592L13.1293 47.8616L14.5459 49.2734ZM36.2318 27.5876L34.8191 26.1718L34.8176 26.1733L36.2318 27.5876ZM48.8592 27.5931L47.4449 29.0073L47.4449 29.0073L48.8592 27.5931ZM56.9378 35.6717L58.3842 34.2905L58.3683 34.2738L58.352 34.2575L56.9378 35.6717ZM61.03 37.3643L61.03 35.3643L61.0214 35.3643L61.03 37.3643ZM65.562 32.8657L67.562 32.8712V32.8657H65.562ZM65.0832 30.5273L63.2661 31.3629L63.2678 31.3666L65.0832 30.5273ZM63.8695 28.779L62.4552 30.1932L62.4689 30.2069L62.4828 30.2203L63.8695 28.779ZM44.7168 9.62641L43.2932 11.0312L43.3026 11.0406L44.7168 9.62641ZM30.7588 6.54752L29.9273 4.72857L29.9255 4.72939L30.7588 6.54752ZM26.5219 9.62641L25.1077 8.2122L25.1065 8.21336L26.5219 9.62641ZM9.56846 26.6077L10.9813 28.0232L10.9838 28.0207L9.56846 26.6077ZM6.57865 41.7349L8.5002 41.1802L8.46821 41.0694L8.42369 40.963L6.57865 41.7349ZM1.15023 43.1602L3.09051 42.6751L3.07196 42.6009L3.04779 42.5283L1.15023 43.1602ZM5.59875 22.5266L7.01297 23.9408L7.0132 23.9406L5.59875 22.5266ZM22.4352 5.68454L21.0278 4.26353L21.0208 4.27056L22.4352 5.68454ZM28.5986 1.39747L27.8088 -0.440004L27.8062 -0.438859L28.5986 1.39747ZM42.6011 1.40304L41.796 3.23382L41.7998 3.2355L42.6011 1.40304ZM48.681 5.68454L50.096 4.27114L50.0952 4.27033L48.681 5.68454ZM53.5248 10.5339L52.1098 11.9473L53.5232 13.3624L54.9382 11.949L53.5248 10.5339ZM58.3798 5.68454L56.9724 4.26354L56.9664 4.26951L58.3798 5.68454ZM64.4875 1.39747L63.6862 -0.43499L63.6835 -0.433815L64.4875 1.39747ZM78.4956 1.40304L77.7032 3.23937L77.7047 3.24002L78.4956 1.40304ZM84.62 5.68454L83.2044 7.09739L83.2059 7.09894L84.62 5.68454ZM105.365 26.4239L106.779 25.0097L106.779 25.0095L105.365 26.4239ZM111.367 40.2539L109.367 40.2509V40.2539H111.367ZM105.365 53.31L106.779 54.7248L106.78 54.7228L105.365 53.31ZM61.9542 96.6817L60.5406 95.2669L60.5377 95.2698L61.9542 96.6817ZM58.1793 99.2094L57.4576 97.3442L57.4559 97.3448L58.1793 99.2094ZM53.9257 96.4324C54.9591 96.4324 55.9718 96.1993 56.9496 95.7817L55.3782 92.1032C54.8266 92.3388 54.3472 92.4324 53.9257 92.4324V96.4324ZM56.9496 95.7817C57.8929 95.3787 58.7417 94.8501 59.4321 94.1596L56.6037 91.3312C56.3513 91.5835 55.9641 91.8529 55.3782 92.1032L56.9496 95.7817ZM59.4322 94.1595L102.837 50.7488L100.009 47.9206L56.6036 91.3313L59.4322 94.1595ZM102.837 50.7489C104.352 49.2339 105.565 47.6439 106.437 45.9726L102.89 44.1226C102.24 45.3687 101.292 46.6368 100.009 47.9205L102.837 50.7489ZM106.44 45.9653C107.353 44.1986 107.799 42.2741 107.799 40.2261H103.799C103.799 41.6745 103.488 42.9643 102.886 44.1299L106.44 45.9653ZM107.799 40.2261C107.799 38.1604 107.355 36.1605 106.484 34.2431L102.843 35.8977C103.486 37.3135 103.799 38.7507 103.799 40.2261H107.799ZM106.483 34.2413C105.614 32.3327 104.386 30.6111 102.824 29.0776L100.022 31.9324C101.258 33.1456 102.191 34.4676 102.843 35.8996L106.483 34.2413ZM102.837 29.0908L81.9587 8.2122L79.1303 11.0406L100.009 31.9192L102.837 29.0908ZM81.97 8.22359C80.4577 6.68682 78.8427 5.49845 77.1156 4.72298L75.4772 8.37206C76.66 8.90312 77.8772 9.76735 79.119 11.0292L81.97 8.22359ZM77.1173 4.72377C75.3803 3.94187 73.4852 3.56762 71.4637 3.56762V7.56762C72.9832 7.56762 74.3099 7.84663 75.4755 8.37128L77.1173 4.72377ZM71.4637 3.56762C69.4598 3.56762 67.5618 3.9435 65.7932 4.71396L67.3908 8.38108C68.6213 7.84501 69.9711 7.56762 71.4637 7.56762V3.56762ZM65.7932 4.71396C64.0087 5.49137 62.3821 6.68768 60.9047 8.24375L63.8054 10.9979C64.9782 9.76278 66.1762 8.9102 67.3908 8.38108L65.7932 4.71396ZM60.9408 8.20663L56.0859 13.0616L58.9143 15.89L63.7693 11.0351L60.9408 8.20663ZM56.084 15.8881L66.3841 26.216L69.2163 23.3914L58.9162 13.0635L56.084 15.8881ZM66.398 26.2299C67.3131 27.1296 67.9785 28.1322 68.4171 29.2451L72.1385 27.7785C71.4859 26.1224 70.4995 24.6529 69.2024 23.3776L66.398 26.2299ZM68.4154 29.2408C68.8703 30.4031 69.0907 31.5613 69.0907 32.7265H73.0907C73.0907 31.041 72.769 29.3894 72.1402 27.7828L68.4154 29.2408ZM69.0907 32.7265C69.0907 35.1422 68.3209 37.0161 66.8314 38.5056L69.6598 41.334C71.9637 39.0301 73.0907 36.1085 73.0907 32.7265H69.0907ZM66.8314 38.5056C65.3421 39.9949 63.4708 40.7624 61.0604 40.7593L61.0552 44.7593C64.4351 44.7636 67.3557 43.6382 69.6598 41.334L66.8314 38.5056ZM61.0578 40.7593C59.8351 40.7593 58.6468 40.5741 57.4855 40.2029L56.2675 44.0129C57.8233 44.5103 59.4225 44.7593 61.0578 44.7593V40.7593ZM57.4855 40.2029C56.4542 39.8732 55.5019 39.2911 54.6217 38.411L51.7932 41.2394C53.0882 42.5343 54.5819 43.4741 56.2675 44.0129L57.4855 40.2029ZM54.6183 38.4076L46.4283 30.2566L43.6067 33.0918L51.7966 41.2428L54.6183 38.4076ZM46.4317 30.26C45.3754 29.2037 44.0275 28.711 42.5566 28.711V32.711C43.0826 32.711 43.3753 32.8604 43.6033 33.0884L46.4317 30.26ZM42.5566 28.711C41.0843 28.711 39.7337 29.2022 38.6759 30.26L41.5044 33.0884C41.7308 32.8619 42.0246 32.711 42.5566 32.711V28.711ZM38.6759 30.26L17.1014 51.8345L19.9298 54.6629L41.5044 33.0884L38.6759 30.26ZM17.0968 51.8392C16.3509 52.59 15.776 53.4587 15.3909 54.4367L19.1127 55.9023C19.2917 55.4477 19.5594 55.0358 19.9345 54.6583L17.0968 51.8392ZM15.3909 54.4367C15.0218 55.374 14.8286 56.3458 14.8286 57.3409L18.8286 57.3409C18.8286 56.8736 18.9176 56.3978 19.1127 55.9023L15.3909 54.4367ZM14.8286 57.3409C14.8286 59.1256 15.4202 60.7319 16.6721 61.9948L19.5129 59.1788C19.0797 58.7418 18.8286 58.1841 18.8286 57.3409H14.8286ZM16.6659 61.9886C17.9195 63.2644 19.5291 63.8674 21.3217 63.8674V59.8674C20.4864 59.8674 19.9432 59.6167 19.5191 59.1851L16.6659 61.9886ZM21.3217 63.8674C22.3552 63.8674 23.3679 63.6343 24.3456 63.2166L22.7742 59.5382C22.2226 59.7738 21.7432 59.8674 21.3217 59.8674V63.8674ZM24.3531 63.2134C25.2938 62.807 26.1398 62.2774 26.8281 61.589L23.9997 58.7606C23.7452 59.0151 23.3552 59.2872 22.7667 59.5415L24.3531 63.2134ZM26.8281 61.589L42.501 45.9162L39.6725 43.0878L23.9997 58.7606L26.8281 61.589ZM42.501 45.9162C42.6686 45.7486 42.8427 45.6638 43.1193 45.646L42.8624 41.6543C41.6396 41.733 40.5442 42.2161 39.6725 43.0878L42.501 45.9162ZM43.1193 45.646C43.1997 45.6408 43.3353 45.6337 43.6059 45.9076L46.4514 43.0964C45.5045 42.1379 44.2816 41.5629 42.8624 41.6543L43.1193 45.646ZM43.6144 45.9162C43.9006 46.2024 43.9194 46.3715 43.9194 46.4729H47.9194C47.9194 45.1342 47.3444 43.9893 46.4428 43.0878L43.6144 45.9162ZM43.9194 46.4729C43.9194 46.5743 43.9006 46.7435 43.6144 47.0296L46.4428 49.8581C47.3444 48.9565 47.9194 47.8117 47.9194 46.4729H43.9194ZM43.6132 47.0309L27.9682 62.7037L30.7991 65.5297L46.4441 49.8568L43.6132 47.0309ZM27.9694 62.7025C27.2184 63.4535 26.6396 64.3237 26.2533 65.3047L29.9751 66.7703C30.153 66.3187 30.4205 65.9082 30.7978 65.5309L27.9694 62.7025ZM26.2488 65.3164C25.8869 66.2523 25.6966 67.22 25.6966 68.2089H29.6966C29.6966 67.7428 29.7847 67.263 29.9797 66.7587L26.2488 65.3164ZM25.6966 68.2089C25.6966 69.9805 26.3438 71.5496 27.5964 72.8022L30.4248 69.9738C29.9255 69.4745 29.6966 68.9241 29.6966 68.2089H25.6966ZM27.5964 72.8022C28.8475 74.0534 30.4141 74.7023 32.1837 74.7075L32.1957 70.7076C31.4784 70.7054 30.9256 70.4746 30.4248 69.9738L27.5964 72.8022ZM32.1897 74.7075C33.2268 74.7075 34.2421 74.471 35.2211 74.048L33.6347 70.376C33.0844 70.6138 32.6076 70.7075 32.1897 70.7075V74.7075ZM35.2211 74.048C36.1589 73.6428 37.003 73.1169 37.6905 72.4348L34.8733 69.5952C34.618 69.8485 34.2261 70.1205 33.6347 70.376L35.2211 74.048ZM37.6947 72.4306L54.6537 55.505L51.8281 52.6738L34.8691 69.5994L37.6947 72.4306ZM54.6601 55.4986C54.8306 55.3269 55.0023 55.2451 55.2685 55.2278L55.0103 51.2362C53.7844 51.3155 52.6905 51.8052 51.8216 52.6803L54.6601 55.4986ZM55.2685 55.2278C55.3426 55.223 55.4804 55.2138 55.7587 55.4938L58.5957 52.6739C57.649 51.7216 56.4284 51.1445 55.0103 51.2362L55.2685 55.2278ZM55.763 55.4981C56.0491 55.7843 56.068 55.9534 56.068 56.0548H60.068C60.068 54.716 59.493 53.5712 58.5914 52.6696L55.763 55.4981ZM56.068 56.0548C56.068 56.1562 56.0491 56.3253 55.763 56.6115L58.5914 59.4399C59.493 58.5384 60.068 57.3935 60.068 56.0548H56.068ZM55.7616 56.6129L38.836 73.5719L41.6672 76.3975L58.5928 59.4385L55.7616 56.6129ZM38.865 73.5434C38.1396 74.2414 37.5944 75.1049 37.1922 76.0682L40.8835 77.6092C41.1197 77.0433 41.3838 76.6708 41.6383 76.4259L38.865 73.5434ZM37.1922 76.0682C36.7852 77.0432 36.5591 78.0506 36.5591 79.0769H40.5591C40.5591 78.6481 40.6521 78.1635 40.8835 77.6092L37.1922 76.0682ZM36.5591 79.0769C36.5591 80.8493 37.2114 82.4169 38.4674 83.6676L41.2898 80.8332C40.7864 80.332 40.5591 79.7839 40.5591 79.0769H36.5591ZM38.4614 83.6617C39.714 84.9196 41.2827 85.5755 43.0577 85.5755V81.5755C42.3532 81.5755 41.8025 81.3481 41.2958 80.8392L38.4614 83.6617ZM43.0577 85.5755C44.0503 85.5755 45.0209 85.382 45.9586 85.0146L44.4995 81.2902C43.9971 81.487 43.5201 81.5755 43.0577 81.5755V85.5755ZM45.9586 85.0146C46.9461 84.6277 47.8194 84.0462 48.5679 83.2878L45.7208 80.4782C45.3557 80.8481 44.9522 81.1129 44.4995 81.2902L45.9586 85.0146ZM48.5569 83.2988L65.5214 66.3733L62.6963 63.5416L45.7317 80.4671L48.5569 83.2988ZM65.5281 66.3666C65.6986 66.1949 65.8703 66.113 66.1365 66.0958L65.8783 62.1042C64.6524 62.1835 63.5585 62.6732 62.6896 63.5482L65.5281 66.3666ZM66.1266 66.0964C66.2096 66.0915 66.3565 66.0878 66.6408 66.3703L69.4607 63.5334C68.5127 62.5911 67.2974 62.0194 65.8882 62.1036L66.1266 66.0964ZM66.6321 66.3616C66.9153 66.6466 66.936 66.8171 66.936 66.9228H70.936C70.936 65.5884 70.3665 64.4448 69.4694 63.5421L66.6321 66.3616ZM66.936 66.9228C66.936 67.0242 66.9171 67.1933 66.631 67.4795L69.4594 70.3079C70.361 69.4064 70.936 68.2615 70.936 66.9228H66.936ZM66.631 67.4795L49.6776 84.4329L52.506 87.2613L69.4594 70.3079L66.631 67.4795ZM49.6729 84.4376C48.8937 85.2219 48.3195 86.1553 47.9442 87.2072L51.7116 88.5514C51.9005 88.0221 52.1689 87.6007 52.5106 87.2567L49.6729 84.4376ZM47.9442 87.2072C47.606 88.1551 47.4048 89.1081 47.4048 90.0451H51.4048C51.4048 89.6756 51.4856 89.1847 51.7116 88.5514L47.9442 87.2072ZM47.4048 90.0451C47.4048 91.8902 48.0828 93.5169 49.4771 94.732L52.1051 91.7164C51.6509 91.3206 51.4048 90.8279 51.4048 90.0451H47.4048ZM49.4771 94.732C50.7462 95.838 52.254 96.4324 53.9313 96.4324L53.9313 92.4324C53.2701 92.4324 52.6844 92.2213 52.1051 91.7164L49.4771 94.732ZM53.8978 98C51.5884 98 49.6518 97.1806 47.9817 95.4648L45.1154 98.2549C47.5209 100.726 50.4838 102 53.8978 102V98ZM47.9817 95.4648C46.3723 93.8114 45.6532 91.8029 45.8585 89.2595L41.8715 88.9377C41.5794 92.5558 42.6494 95.7215 45.1154 98.2549L47.9817 95.4648ZM43.8415 87.0987C41.1338 87.1306 39.017 86.3376 37.337 84.8003L34.6367 87.7513C37.1509 90.052 40.2863 91.1408 43.8885 91.0985L43.8415 87.0987ZM37.337 84.8003C35.7595 83.3569 34.9057 81.2897 34.9961 78.2966L30.9979 78.1758C30.8805 82.0643 32.0198 85.3568 34.6367 87.7513L37.337 84.8003ZM32.9754 76.2363C29.9529 76.2689 27.8104 75.4162 26.2904 73.8791L23.4462 76.6916C25.8903 79.1632 29.167 80.2777 33.0186 80.2361L32.9754 76.2363ZM26.2904 73.8791C24.771 72.3426 24.0065 70.2881 24.1595 67.4769L20.1654 67.2595C19.962 70.9959 21.0014 74.2194 23.4462 76.6916L26.2904 73.8791ZM22.1384 65.3683C19.4607 65.4004 17.3589 64.6569 15.6889 63.2306L13.0911 66.2722C15.5931 68.4092 18.6729 69.4102 22.1864 69.3681L22.1384 65.3683ZM15.6871 63.2291C14.1239 61.8971 13.2666 60.0226 13.2666 57.3353H9.26659C9.26659 60.9878 10.4916 64.0573 13.0929 66.2738L15.6871 63.2291ZM13.2666 57.3353C13.2666 56.1706 13.4909 54.9857 13.9614 53.7701L10.231 52.3264C9.59531 53.9689 9.26659 55.6421 9.26659 57.3353H13.2666ZM13.962 53.7685C14.4154 52.594 15.0793 51.5715 15.9626 50.6852L13.1293 47.8616C11.8523 49.143 10.8831 50.6371 10.2303 52.3281L13.962 53.7685ZM15.9601 50.6876L37.646 29.0018L34.8176 26.1733L13.1317 47.8592L15.9601 50.6876ZM37.6445 29.0033C38.9616 27.689 40.5514 27.032 42.5455 27.032V23.032C39.5361 23.032 36.9168 24.0787 34.8191 26.1718L37.6445 29.0033ZM42.5455 27.032C44.5381 27.032 46.1274 27.6898 47.4449 29.0073L50.2734 26.1789C48.176 24.0816 45.5563 23.032 42.5455 23.032V27.032ZM47.4449 29.0073L55.5236 37.0859L58.352 34.2575L50.2734 26.1789L47.4449 29.0073ZM55.4913 37.0529C56.1566 37.7496 56.9542 38.296 57.8503 38.7081L59.5217 35.074C59.0296 34.8477 58.6618 34.5812 58.3842 34.2905L55.4913 37.0529ZM57.8503 38.7081C58.8432 39.1647 59.9185 39.3691 61.0385 39.3643L61.0214 35.3643C60.4043 35.367 59.917 35.2558 59.5217 35.074L57.8503 38.7081ZM61.03 39.3643C62.7392 39.3643 64.2668 38.7493 65.5333 37.5959L62.8403 34.6384C62.2807 35.1479 61.7037 35.3643 61.03 35.3643V39.3643ZM65.5333 37.5959C66.8979 36.3535 67.5569 34.7169 67.562 32.8712L63.562 32.8601C63.5597 33.6869 63.3019 34.218 62.8403 34.6384L65.5333 37.5959ZM67.562 32.8657C67.562 31.7484 67.3555 30.6763 66.8985 29.6879L63.2678 31.3666C63.4493 31.759 63.562 32.2459 63.562 32.8657H67.562ZM66.9002 29.6916C66.4895 28.7985 65.947 28.0025 65.2561 27.3378L62.4828 30.2203C62.7718 30.4983 63.0385 30.8679 63.2661 31.3629L66.9002 29.6916ZM65.2837 27.3648L46.1311 8.2122L43.3026 11.0406L62.4552 30.1932L65.2837 27.3648ZM46.1405 8.22167C44.6182 6.67894 42.98 5.49 41.2169 4.71615L39.6093 8.37889C40.823 8.91158 42.054 9.77523 43.2932 11.0312L46.1405 8.22167ZM41.2169 4.71615C39.4532 3.94207 37.547 3.56762 35.5247 3.56762V7.56762C37.0434 7.56762 38.3961 7.84643 39.6093 8.37889L41.2169 4.71615ZM35.5247 3.56762C33.522 3.56762 31.6453 3.94318 29.9273 4.72857L31.5903 8.36647C32.7303 7.84532 34.0309 7.56762 35.5247 7.56762V3.56762ZM29.9255 4.72939C28.2358 5.50385 26.6329 6.68699 25.1077 8.2122L27.9361 11.0406C29.2095 9.76718 30.4312 8.89773 31.5921 8.36565L29.9255 4.72939ZM25.1065 8.21336L8.15309 25.1946L10.9838 28.0207L27.9372 11.0395L25.1065 8.21336ZM8.1556 25.1921C5.91904 27.4244 4.48525 30.1558 3.85433 33.3273L7.77745 34.1077C8.26005 31.6819 9.32798 29.6734 10.9813 28.0232L8.1556 25.1921ZM3.85433 33.3273C3.2227 36.5023 3.50932 39.5804 4.73362 42.5068L8.42369 40.963C7.51745 38.7968 7.29556 36.53 7.77745 34.1077L3.85433 33.3273ZM4.65711 42.2895C4.70646 42.4605 4.70301 42.5925 4.57445 42.812L8.0261 44.8334C8.68442 43.7093 8.86657 42.4494 8.5002 41.1802L4.65711 42.2895ZM4.57445 42.812C4.43733 43.0462 4.31313 43.1205 4.14021 43.1642L5.11976 47.0424C6.387 46.7223 7.37633 45.943 8.0261 44.8334L4.57445 42.812ZM4.14021 43.1642C3.9399 43.2148 3.73088 43.2094 3.42138 43.0457L1.55153 46.5818C2.65991 47.1679 3.87991 47.3555 5.11976 47.0424L4.14021 43.1642ZM3.42138 43.0457C3.17523 42.9156 3.12421 42.8099 3.09051 42.6751L-0.790059 43.6453C-0.460008 44.9655 0.379793 45.9622 1.55153 46.5818L3.42138 43.0457ZM3.04779 42.5283C1.95364 39.2425 1.71875 35.9485 2.33216 32.6152L-1.60178 31.8912C-2.33944 35.8997 -2.05097 39.8771 -0.747336 43.7921L3.04779 42.5283ZM2.33216 32.6152C2.92939 29.3698 4.46615 26.4876 7.01297 23.9408L4.18454 21.1124C1.10435 24.1926 -0.847935 27.7948 -1.60178 31.8912L2.33216 32.6152ZM7.0132 23.9406L23.8497 7.09852L21.0208 4.27056L4.18431 21.1126L7.0132 23.9406ZM23.8426 7.10553C25.6341 5.3312 27.4855 4.05604 29.391 3.23381L27.8062 -0.438859C25.3764 0.60963 23.1189 2.19251 21.0278 4.26355L23.8426 7.10553ZM29.3883 3.23495C31.2898 2.4177 33.363 2 35.6305 2V-2C32.8574 -2 30.2427 -1.48605 27.8088 -0.440002L29.3883 3.23495ZM35.6305 2C37.8973 2 39.9438 2.41923 41.796 3.23381L43.4063 -0.427731C41.0048 -1.48387 38.4042 -2 35.6305 -2V2ZM41.7998 3.2355C43.6666 4.05179 45.4911 5.32312 47.2668 7.09875L50.0952 4.27033C48.0255 2.20059 45.7968 0.617587 43.4025 -0.429421L41.7998 3.2355ZM47.266 7.09794L52.1098 11.9473L54.9398 9.12054L50.096 4.27114L47.266 7.09794ZM54.9382 11.949L59.7932 7.09956L56.9664 4.26951L52.1114 9.11891L54.9382 11.949ZM59.7872 7.10553C61.5839 5.32595 63.4209 4.04996 65.2914 3.22876L63.6835 -0.433815C61.2929 0.61571 59.0581 2.19776 56.9724 4.26355L59.7872 7.10553ZM65.2888 3.22993C67.146 2.41778 69.1958 2 71.4637 2V-2C68.691 -2 66.09 -1.48613 63.6862 -0.434988L65.2888 3.22993ZM71.4637 2C73.7301 2 75.8023 2.41914 77.7032 3.23937L79.288 -0.433292C76.8535 -1.48378 74.2378 -2 71.4637 -2V2ZM77.7047 3.24002C79.6025 4.05709 81.4377 5.32728 83.2044 7.09739L86.0355 4.27169C83.9643 2.19643 81.7165 0.612284 79.2865 -0.433943L77.7047 3.24002ZM83.2059 7.09894L103.951 27.8383L106.779 25.0095L86.034 4.27014L83.2059 7.09894ZM103.951 27.8381C105.7 29.5876 107.036 31.5358 107.975 33.6878L111.641 32.0881C110.494 29.4593 108.868 27.0982 106.779 25.0097L103.951 27.8381ZM107.975 33.6878C108.911 35.834 109.37 38.0166 109.367 40.2509L113.367 40.2568C113.371 37.4506 112.791 34.7226 111.641 32.0881L107.975 33.6878ZM109.367 40.2539C109.367 42.4942 108.908 44.5166 108.011 46.352L111.605 48.1082C112.786 45.69 113.367 43.0616 113.367 40.2539H109.367ZM108.011 46.352C107.082 48.2536 105.739 50.1038 103.949 51.8971L106.78 54.7228C108.836 52.6633 110.455 50.4603 111.605 48.1082L108.011 46.352ZM103.951 51.8951L60.5406 95.2669L63.3678 98.0966L106.778 54.7248L103.951 51.8951ZM60.5377 95.2698C59.5571 96.2536 58.5296 96.9294 57.4576 97.3442L58.901 101.075C60.5535 100.435 62.0426 99.426 63.3707 98.0937L60.5377 95.2698ZM57.4559 97.3448C56.334 97.7801 55.1563 98 53.8978 98V102C55.6384 102 57.3077 101.693 58.9028 101.074L57.4559 97.3448Z" fill="white" mask="url(#path-1-inside-1_64_2)"/>
</svg>
