<svg width="100" height="100" viewBox="0 0 100 100" fill="none" xmlns="http://www.w3.org/2000/svg">
<path d="M32.4997 8.33325H67.4997C80.833 8.33325 91.6663 19.1666 91.6663 32.4999V67.4999C91.6663 73.9093 89.1202 80.0562 84.5881 84.5883C80.056 89.1205 73.9091 91.6666 67.4997 91.6666H32.4997C19.1663 91.6666 8.33301 80.8333 8.33301 67.4999V32.4999C8.33301 26.0905 10.8791 19.9436 15.4113 15.4115C19.9434 10.8794 26.0903 8.33325 32.4997 8.33325ZM31.6663 16.6666C27.6881 16.6666 23.8728 18.2469 21.0597 21.06C18.2467 23.873 16.6663 27.6883 16.6663 31.6666V68.3333C16.6663 76.6249 23.3747 83.3333 31.6663 83.3333H68.333C72.3113 83.3333 76.1266 81.7529 78.9396 78.9399C81.7527 76.1268 83.333 72.3115 83.333 68.3333V31.6666C83.333 23.3749 76.6247 16.6666 68.333 16.6666H31.6663ZM71.8747 22.9166C73.256 22.9166 74.5808 23.4653 75.5575 24.4421C76.5343 25.4188 77.083 26.7436 77.083 28.1249C77.083 29.5063 76.5343 30.831 75.5575 31.8078C74.5808 32.7845 73.256 33.3333 71.8747 33.3333C70.4933 33.3333 69.1686 32.7845 68.1918 31.8078C67.2151 30.831 66.6663 29.5063 66.6663 28.1249C66.6663 26.7436 67.2151 25.4188 68.1918 24.4421C69.1686 23.4653 70.4933 22.9166 71.8747 22.9166ZM49.9997 29.1666C55.525 29.1666 60.8241 31.3615 64.7311 35.2685C68.6381 39.1755 70.833 44.4746 70.833 49.9999C70.833 55.5253 68.6381 60.8243 64.7311 64.7313C60.8241 68.6383 55.525 70.8333 49.9997 70.8333C44.4743 70.8333 39.1753 68.6383 35.2683 64.7313C31.3613 60.8243 29.1663 55.5253 29.1663 49.9999C29.1663 44.4746 31.3613 39.1755 35.2683 35.2685C39.1753 31.3615 44.4743 29.1666 49.9997 29.1666ZM49.9997 37.4999C46.6845 37.4999 43.505 38.8169 41.1608 41.1611C38.8166 43.5053 37.4997 46.6847 37.4997 49.9999C37.4997 53.3151 38.8166 56.4946 41.1608 58.8388C43.505 61.183 46.6845 62.4999 49.9997 62.4999C53.3149 62.4999 56.4943 61.183 58.8385 58.8388C61.1827 56.4946 62.4997 53.3151 62.4997 49.9999C62.4997 46.6847 61.1827 43.5053 58.8385 41.1611C56.4943 38.8169 53.3149 37.4999 49.9997 37.4999Z" fill="white"/>
</svg>
