<svg width="106" height="100" viewBox="0 0 106 100" fill="none" xmlns="http://www.w3.org/2000/svg">
<path d="M78.9474 24.8158V26.3158C78.9474 24.8158 78.9465 24.8158 78.9454 24.8158L78.9422 24.8158L78.9323 24.8158L78.8982 24.816C78.8691 24.8162 78.8275 24.8166 78.7736 24.8174C78.6659 24.819 78.5092 24.8222 78.3064 24.8284C77.9007 24.8407 77.31 24.8653 76.5558 24.914C75.0478 25.0114 72.8845 25.2054 70.2394 25.5923C64.9524 26.3655 57.7206 27.9116 49.9389 31.0076C34.8628 37.0056 17.6796 48.8466 8.6703 72.1312C7.87341 71.1622 6.87155 69.8463 5.87076 68.2736C3.63417 64.759 1.5 60.1135 1.5 55.2632C1.5 50.4014 3.97445 42.4943 9.73389 35.135C15.4576 27.8214 24.3656 21.1303 37.1363 18.5761C43.669 17.2696 50.8675 16.2057 58.1057 15.1775C59.1001 15.0363 60.0955 14.8957 61.0899 14.7552C67.3171 13.8756 73.5067 13.0012 79.2059 12.0039C85.806 10.8488 91.8339 9.51507 96.5683 7.78194C98.885 6.93385 100.991 5.95612 102.718 4.79319C102.184 7.09679 101.438 10.0903 100.449 13.5701C98.0801 21.9006 94.3276 32.9908 88.7899 44.066C77.6661 66.3138 59.6263 87.9737 31.5789 87.9737C29.9544 87.9737 27.5257 87.3657 25.0271 86.4808L23.6839 86.0051L23.1399 87.3221L18.6815 98.1162L11.5557 95.6278C11.8232 94.9595 12.091 94.289 12.3594 93.6168C17.4157 80.955 22.7255 67.6584 31.7862 56.0894C41.6234 43.5289 55.9255 32.9684 79.2728 27.7801L78.9474 24.8158Z" stroke="white" stroke-width="3"/>
</svg>
