<svg width="50" height="50" viewBox="0 0 50 50" fill="none" xmlns="http://www.w3.org/2000/svg">
<path d="M25 23.9583C23.6187 23.9583 22.2939 23.4096 21.3172 22.4328C20.3404 21.4561 19.7917 20.1313 19.7917 18.75C19.7917 17.3686 20.3404 16.0439 21.3172 15.0671C22.2939 14.0904 23.6187 13.5416 25 13.5416C26.3814 13.5416 27.7061 14.0904 28.6829 15.0671C29.6596 16.0439 30.2084 17.3686 30.2084 18.75C30.2084 19.4339 30.0736 20.1112 29.8119 20.7431C29.5501 21.375 29.1665 21.9492 28.6829 22.4328C28.1992 22.9164 27.6251 23.3001 26.9932 23.5618C26.3613 23.8236 25.684 23.9583 25 23.9583ZM25 4.16663C21.1323 4.16663 17.423 5.70308 14.688 8.43799C11.9531 11.1729 10.4167 14.8822 10.4167 18.75C10.4167 29.6875 25 45.8333 25 45.8333C25 45.8333 39.5834 29.6875 39.5834 18.75C39.5834 14.8822 38.0469 11.1729 35.312 8.43799C32.5771 5.70308 28.8678 4.16663 25 4.16663Z" fill="#4CAF50"/>
</svg>
