<svg width="894" height="520" viewBox="0 0 894 520" fill="none" xmlns="http://www.w3.org/2000/svg">
<path d="M682.5 383.523L623 417.951V166.5V165.405L622.172 166.122L445.501 319.337L269.829 166.123L269 165.4V166.5V417.951L209.5 383.523V84H269.309L445.167 240.873L445.499 241.169L445.832 240.874L622.69 84H682.5V383.523Z" fill="black" stroke="black"/>
<path d="M531.5 346.5H467.828L519.688 301H580.5V441.711L445.5 519.423L310.5 441.711V216.597L359 258.728V412.667V412.954L359.247 413.099L445.247 463.432L445.5 463.579L445.752 463.432L531.752 413.132L532 412.987V412.7V347V346.5H531.5Z" fill="black" stroke="black"/>
<path d="M531.835 257.5L580.5 215.099V257.5H531.835Z" fill="black" stroke="black"/>
<path d="M432.19 216L380.317 170H510.692L459.309 216H432.19Z" fill="black" stroke="black"/>
<path d="M701 66.5V66.0015L700.501 66L193.501 64.5L193 64.4985V65V453.5V517.5H1.1873L63.2106 454H127.732H128.232V453.5V0.5H765.726V453.5V454H766.226H829.792L892.799 517.5H701V453.5V66.5Z" fill="black" stroke="black"/>
</svg>
