<svg width="1144" height="812" viewBox="0 0 1144 812" fill="none" xmlns="http://www.w3.org/2000/svg">
<path d="M808.5 383.523L749 417.951V166.5V165.405L748.172 166.122L571.501 319.337L395.829 166.123L395 165.4V166.5V417.951L335.5 383.523V84H395.309L571.167 240.873L571.499 241.169L571.832 240.874L748.69 84H808.5V383.523Z" fill="white" stroke="white"/>
<path d="M657.5 346.5H593.828L645.688 301H706.5V441.711L571.5 519.423L436.5 441.711V216.597L485 258.728V412.667V412.954L485.247 413.099L571.247 463.432L571.5 463.579L571.752 463.432L657.752 413.132L658 412.987V412.7V347V346.5H657.5Z" fill="white" stroke="white"/>
<path d="M657.835 257.5L706.5 215.099V257.5H657.835Z" fill="white" stroke="white"/>
<path d="M558.19 216L506.317 170H636.692L585.309 216H558.19Z" fill="white" stroke="white"/>
<path d="M827 66.5V66.0015L826.501 66L319.501 64.5L319 64.4985V65V453.5V517.5H127.187L189.211 454H253.732H254.232V453.5V0.5H891.726V453.5V454H892.226H955.792L1018.8 517.5H827V453.5V66.5Z" fill="white" stroke="white"/>
<mask id="path-6-inside-1_1_309" fill="white">
<path d="M149.17 623V584.06H160.775C166.715 584.06 173.315 586.205 173.315 594.015C173.315 598.085 170.565 601.44 166.44 602.375V602.485C171.5 603.035 175.24 606.555 175.24 612.22C175.24 618.71 169.685 623 160.72 623H149.17ZM153.13 587.47V601.11H161.105C164.9 601.11 169.355 599.46 169.355 594.29C169.355 589.34 165.12 587.47 160.005 587.47H153.13ZM153.13 604.355V619.59H160.5C166.22 619.59 171.225 617.445 171.225 612C171.225 606.885 167.54 604.355 161.215 604.355H153.13ZM224.946 612.77L220.711 623H216.366L233.196 584.06H237.046L253.766 623H249.366L245.076 612.77H224.946ZM235.011 588.46L226.431 609.14H243.591L235.011 588.46ZM300.307 584.06V619.48H318.457V623H296.347V584.06H300.307ZM361.234 623V584.06H374.159C383.894 584.06 394.619 590.55 394.619 603.53C394.619 616.51 383.894 623 374.159 623H361.234ZM365.194 587.58V619.48H373.059C384.774 619.48 390.439 611.56 390.439 603.53C390.439 595.5 384.774 587.58 373.059 587.58H365.194ZM443.67 604.465V619.48H464.515V623H439.71V584.06H463.855V587.58H443.67V601H462.535V604.465H443.67ZM531.108 587.8L527.973 590.33C526.323 587.965 523.628 586.425 519.943 586.425C516.093 586.425 511.638 588.735 511.638 593.74C511.638 598.69 515.763 599.955 520.108 601.385C525.608 603.2 531.658 604.96 531.658 612.77C531.658 620.58 525.113 623.99 518.953 623.99C514.223 623.99 509.493 622.065 506.688 618.215L510.098 615.685C511.803 618.435 514.938 620.58 519.008 620.58C523.023 620.58 527.643 618.05 527.643 613.045C527.643 607.6 523.078 606.225 518.128 604.685C512.958 603.09 507.678 600.835 507.678 593.795C507.678 586.26 514.388 583.07 520.108 583.07C525.333 583.07 529.238 585.27 531.108 587.8ZM599.003 587.8L595.868 590.33C594.218 587.965 591.523 586.425 587.838 586.425C583.988 586.425 579.533 588.735 579.533 593.74C579.533 598.69 583.658 599.955 588.003 601.385C593.503 603.2 599.553 604.96 599.553 612.77C599.553 620.58 593.008 623.99 586.848 623.99C582.118 623.99 577.388 622.065 574.583 618.215L577.993 615.685C579.698 618.435 582.833 620.58 586.903 620.58C590.918 620.58 595.538 618.05 595.538 613.045C595.538 607.6 590.973 606.225 586.023 604.685C580.853 603.09 575.573 600.835 575.573 593.795C575.573 586.26 582.283 583.07 588.003 583.07C593.228 583.07 597.133 585.27 599.003 587.8ZM648.858 612.77L644.623 623H640.278L657.108 584.06H660.958L677.678 623H673.278L668.988 612.77H648.858ZM658.923 588.46L650.343 609.14H667.503L658.923 588.46ZM724.219 604.795V623H720.259V584.06H731.699C739.399 584.06 745.009 586.865 745.009 594.455C745.009 600.23 740.719 603.86 735.054 604.465L746.439 623H741.599L730.819 604.795H724.219ZM724.219 587.47V601.385H731.094C737.419 601.385 741.049 599.075 741.049 594.455C741.049 589.34 737.144 587.47 731.259 587.47H724.219ZM793.994 604.465V619.48H814.839V623H790.034V584.06H814.179V587.58H793.994V601H812.859V604.465H793.994ZM863.393 584.06V619.48H881.543V623H859.433V584.06H863.393ZM928.28 584.06V619.48H946.43V623H924.32V584.06H928.28ZM993.167 584.06V623H989.207V584.06H993.167Z"/>
</mask>
<path d="M149.17 623V584.06H160.775C166.715 584.06 173.315 586.205 173.315 594.015C173.315 598.085 170.565 601.44 166.44 602.375V602.485C171.5 603.035 175.24 606.555 175.24 612.22C175.24 618.71 169.685 623 160.72 623H149.17ZM153.13 587.47V601.11H161.105C164.9 601.11 169.355 599.46 169.355 594.29C169.355 589.34 165.12 587.47 160.005 587.47H153.13ZM153.13 604.355V619.59H160.5C166.22 619.59 171.225 617.445 171.225 612C171.225 606.885 167.54 604.355 161.215 604.355H153.13ZM224.946 612.77L220.711 623H216.366L233.196 584.06H237.046L253.766 623H249.366L245.076 612.77H224.946ZM235.011 588.46L226.431 609.14H243.591L235.011 588.46ZM300.307 584.06V619.48H318.457V623H296.347V584.06H300.307ZM361.234 623V584.06H374.159C383.894 584.06 394.619 590.55 394.619 603.53C394.619 616.51 383.894 623 374.159 623H361.234ZM365.194 587.58V619.48H373.059C384.774 619.48 390.439 611.56 390.439 603.53C390.439 595.5 384.774 587.58 373.059 587.58H365.194ZM443.67 604.465V619.48H464.515V623H439.71V584.06H463.855V587.58H443.67V601H462.535V604.465H443.67ZM531.108 587.8L527.973 590.33C526.323 587.965 523.628 586.425 519.943 586.425C516.093 586.425 511.638 588.735 511.638 593.74C511.638 598.69 515.763 599.955 520.108 601.385C525.608 603.2 531.658 604.96 531.658 612.77C531.658 620.58 525.113 623.99 518.953 623.99C514.223 623.99 509.493 622.065 506.688 618.215L510.098 615.685C511.803 618.435 514.938 620.58 519.008 620.58C523.023 620.58 527.643 618.05 527.643 613.045C527.643 607.6 523.078 606.225 518.128 604.685C512.958 603.09 507.678 600.835 507.678 593.795C507.678 586.26 514.388 583.07 520.108 583.07C525.333 583.07 529.238 585.27 531.108 587.8ZM599.003 587.8L595.868 590.33C594.218 587.965 591.523 586.425 587.838 586.425C583.988 586.425 579.533 588.735 579.533 593.74C579.533 598.69 583.658 599.955 588.003 601.385C593.503 603.2 599.553 604.96 599.553 612.77C599.553 620.58 593.008 623.99 586.848 623.99C582.118 623.99 577.388 622.065 574.583 618.215L577.993 615.685C579.698 618.435 582.833 620.58 586.903 620.58C590.918 620.58 595.538 618.05 595.538 613.045C595.538 607.6 590.973 606.225 586.023 604.685C580.853 603.09 575.573 600.835 575.573 593.795C575.573 586.26 582.283 583.07 588.003 583.07C593.228 583.07 597.133 585.27 599.003 587.8ZM648.858 612.77L644.623 623H640.278L657.108 584.06H660.958L677.678 623H673.278L668.988 612.77H648.858ZM658.923 588.46L650.343 609.14H667.503L658.923 588.46ZM724.219 604.795V623H720.259V584.06H731.699C739.399 584.06 745.009 586.865 745.009 594.455C745.009 600.23 740.719 603.86 735.054 604.465L746.439 623H741.599L730.819 604.795H724.219ZM724.219 587.47V601.385H731.094C737.419 601.385 741.049 599.075 741.049 594.455C741.049 589.34 737.144 587.47 731.259 587.47H724.219ZM793.994 604.465V619.48H814.839V623H790.034V584.06H814.179V587.58H793.994V601H812.859V604.465H793.994ZM863.393 584.06V619.48H881.543V623H859.433V584.06H863.393ZM928.28 584.06V619.48H946.43V623H924.32V584.06H928.28ZM993.167 584.06V623H989.207V584.06H993.167Z" fill="white" stroke="white" stroke-width="2" mask="url(#path-6-inside-1_1_309)"/>
<mask id="path-7-inside-2_1_309" fill="white">
<path d="M271.12 794.44L273.64 792.76C275.04 795.12 277.32 796.32 280.12 796.32C283.68 796.32 286.48 794.16 286.48 790.76C286.48 782.84 271.88 787.48 271.88 776.72C271.88 771.68 276.2 768.96 280.96 768.96C284.04 768.96 286.76 770 288.68 772.52L286.4 774.16C285.08 772.32 283.32 771.36 280.88 771.36C277.48 771.36 274.52 773.12 274.52 776.72C274.52 785.24 289.12 780.12 289.12 790.76C289.12 795.88 284.92 798.72 280.32 798.72C276.6 798.72 273.32 797.52 271.12 794.44ZM293.467 783.84C293.467 775.2 299.467 768.96 308.107 768.96C316.747 768.96 322.747 775.2 322.747 783.84C322.747 792.48 316.747 798.72 308.107 798.72C299.467 798.72 293.467 792.48 293.467 783.84ZM296.107 783.84C296.107 790.88 300.707 796.32 308.107 796.32C315.507 796.32 320.107 790.88 320.107 783.84C320.107 776.8 315.507 771.36 308.107 771.36C300.707 771.36 296.107 776.8 296.107 783.84ZM328.866 798V769.68H331.506V795.6H344.706V798H328.866ZM369.186 769.68V787.16C369.186 793.2 366.586 798.72 358.866 798.72C351.146 798.72 348.546 793.2 348.546 787.16V769.68H351.186V786.48C351.186 790.52 352.266 796.32 358.866 796.32C365.466 796.32 366.546 790.52 366.546 786.48V769.68H369.186ZM373.65 798V795.92L390.21 772.08H373.89V769.68H393.61V771.84L376.93 795.6H394.05V798H373.65ZM399.036 798V769.68H401.676V798H399.036ZM407.787 783.84C407.787 775.2 413.787 768.96 422.427 768.96C431.067 768.96 437.067 775.2 437.067 783.84C437.067 792.48 431.067 798.72 422.427 798.72C413.787 798.72 407.787 792.48 407.787 783.84ZM410.427 783.84C410.427 790.88 415.027 796.32 422.427 796.32C429.827 796.32 434.427 790.88 434.427 783.84C434.427 776.8 429.827 771.36 422.427 771.36C415.027 771.36 410.427 776.8 410.427 783.84ZM443.186 798V769.68H446.586L463.826 794.48H463.906V769.68H466.546V798H463.146L445.906 773.2H445.826V798H443.186ZM474.519 798V769.68H477.159V798H474.519ZM495.7 798V769.68H503.86C507.86 769.68 512.98 771.24 512.98 777.16C512.98 782.28 508.9 784.56 504.46 784.56H498.34V798H495.7ZM498.34 772.08V782.16H504.34C507.34 782.16 510.34 780.88 510.34 777.16C510.34 773.52 507.22 772.08 504.18 772.08H498.34ZM518.869 798V769.68H536.189V772.08H521.509V782.16H535.269V784.56H521.509V795.6H536.829V798H518.869ZM545.42 772.08V782.16H551.02C556.58 782.16 557.66 779.08 557.66 777.12C557.66 775.16 556.58 772.08 551.02 772.08H545.42ZM542.78 798V769.68H550.22C552.46 769.68 560.3 769.68 560.3 777.12C560.3 782.52 556.18 784 553.06 784.4L561.3 798H558.3L550.34 784.56H545.42V798H542.78ZM577.282 798V769.68H579.922V795.6H593.122V798H577.282ZM591.628 778.8L594.148 769.68H597.068L593.988 778.8H591.628ZM599.939 798L612.299 769.68H615.019L626.939 798H623.979L620.899 790.48H605.899L602.699 798H599.939ZM619.939 788.08L613.539 772.56L606.939 788.08H619.939ZM654.562 782.72V796.16C651.282 798.04 647.682 798.72 644.002 798.72C635.362 798.72 629.362 792.48 629.362 783.84C629.362 775.2 635.362 768.96 644.002 768.96C648.202 768.96 651.602 770.24 654.202 772.88L652.282 774.88C650.562 772.8 647.082 771.36 644.002 771.36C636.602 771.36 632.002 776.8 632.002 783.84C632.002 790.88 636.602 796.32 644.002 796.32C647.042 796.32 649.762 795.92 651.922 794.64V785.12H645.122V782.72H654.562ZM665.175 772.08V782.16H670.775C676.335 782.16 677.415 779.08 677.415 777.12C677.415 775.16 676.335 772.08 670.775 772.08H665.175ZM662.535 798V769.68H669.975C672.215 769.68 680.055 769.68 680.055 777.12C680.055 782.52 675.935 784 672.815 784.4L681.055 798H678.055L670.095 784.56H665.175V798H662.535ZM686.446 798V769.68H689.086V798H686.446ZM718.196 791.92L720.356 793.56C717.676 797.24 713.996 798.72 709.836 798.72C701.196 798.72 695.196 792.48 695.196 783.84C695.196 775.2 701.196 768.96 709.836 768.96C713.676 768.96 717.116 770.24 719.596 773.4L717.436 775.2C715.676 772.56 712.676 771.36 709.836 771.36C702.436 771.36 697.836 776.8 697.836 783.84C697.836 790.88 702.436 796.32 709.836 796.32C712.676 796.32 716.196 794.96 718.196 791.92ZM723.56 783.84C723.56 775.2 729.56 768.96 738.2 768.96C746.84 768.96 752.84 775.2 752.84 783.84C752.84 792.48 746.84 798.72 738.2 798.72C729.56 798.72 723.56 792.48 723.56 783.84ZM726.2 783.84C726.2 790.88 730.8 796.32 738.2 796.32C745.6 796.32 750.2 790.88 750.2 783.84C750.2 776.8 745.6 771.36 738.2 771.36C730.8 771.36 726.2 776.8 726.2 783.84ZM758.96 798V769.68H761.6V795.6H774.8V798H758.96ZM781.768 798V772.08H772.088V769.68H794.088V772.08H784.408V798H781.768ZM818.777 769.68V787.16C818.777 793.2 816.177 798.72 808.457 798.72C800.737 798.72 798.137 793.2 798.137 787.16V769.68H800.777V786.48C800.777 790.52 801.857 796.32 808.457 796.32C815.057 796.32 816.137 790.52 816.137 786.48V769.68H818.777ZM828.84 772.08V782.16H834.44C840 782.16 841.08 779.08 841.08 777.12C841.08 775.16 840 772.08 834.44 772.08H828.84ZM826.2 798V769.68H833.64C835.88 769.68 843.72 769.68 843.72 777.12C843.72 782.52 839.6 784 836.48 784.4L844.72 798H841.72L833.76 784.56H828.84V798H826.2ZM846.431 798L858.791 769.68H861.511L873.431 798H870.471L867.391 790.48H852.391L849.191 798H846.431ZM866.431 788.08L860.031 772.56L853.431 788.08H866.431Z"/>
</mask>
<path d="M271.12 794.44L273.64 792.76C275.04 795.12 277.32 796.32 280.12 796.32C283.68 796.32 286.48 794.16 286.48 790.76C286.48 782.84 271.88 787.48 271.88 776.72C271.88 771.68 276.2 768.96 280.96 768.96C284.04 768.96 286.76 770 288.68 772.52L286.4 774.16C285.08 772.32 283.32 771.36 280.88 771.36C277.48 771.36 274.52 773.12 274.52 776.72C274.52 785.24 289.12 780.12 289.12 790.76C289.12 795.88 284.92 798.72 280.32 798.72C276.6 798.72 273.32 797.52 271.12 794.44ZM293.467 783.84C293.467 775.2 299.467 768.96 308.107 768.96C316.747 768.96 322.747 775.2 322.747 783.84C322.747 792.48 316.747 798.72 308.107 798.72C299.467 798.72 293.467 792.48 293.467 783.84ZM296.107 783.84C296.107 790.88 300.707 796.32 308.107 796.32C315.507 796.32 320.107 790.88 320.107 783.84C320.107 776.8 315.507 771.36 308.107 771.36C300.707 771.36 296.107 776.8 296.107 783.84ZM328.866 798V769.68H331.506V795.6H344.706V798H328.866ZM369.186 769.68V787.16C369.186 793.2 366.586 798.72 358.866 798.72C351.146 798.72 348.546 793.2 348.546 787.16V769.68H351.186V786.48C351.186 790.52 352.266 796.32 358.866 796.32C365.466 796.32 366.546 790.52 366.546 786.48V769.68H369.186ZM373.65 798V795.92L390.21 772.08H373.89V769.68H393.61V771.84L376.93 795.6H394.05V798H373.65ZM399.036 798V769.68H401.676V798H399.036ZM407.787 783.84C407.787 775.2 413.787 768.96 422.427 768.96C431.067 768.96 437.067 775.2 437.067 783.84C437.067 792.48 431.067 798.72 422.427 798.72C413.787 798.72 407.787 792.48 407.787 783.84ZM410.427 783.84C410.427 790.88 415.027 796.32 422.427 796.32C429.827 796.32 434.427 790.88 434.427 783.84C434.427 776.8 429.827 771.36 422.427 771.36C415.027 771.36 410.427 776.8 410.427 783.84ZM443.186 798V769.68H446.586L463.826 794.48H463.906V769.68H466.546V798H463.146L445.906 773.2H445.826V798H443.186ZM474.519 798V769.68H477.159V798H474.519ZM495.7 798V769.68H503.86C507.86 769.68 512.98 771.24 512.98 777.16C512.98 782.28 508.9 784.56 504.46 784.56H498.34V798H495.7ZM498.34 772.08V782.16H504.34C507.34 782.16 510.34 780.88 510.34 777.16C510.34 773.52 507.22 772.08 504.18 772.08H498.34ZM518.869 798V769.68H536.189V772.08H521.509V782.16H535.269V784.56H521.509V795.6H536.829V798H518.869ZM545.42 772.08V782.16H551.02C556.58 782.16 557.66 779.08 557.66 777.12C557.66 775.16 556.58 772.08 551.02 772.08H545.42ZM542.78 798V769.68H550.22C552.46 769.68 560.3 769.68 560.3 777.12C560.3 782.52 556.18 784 553.06 784.4L561.3 798H558.3L550.34 784.56H545.42V798H542.78ZM577.282 798V769.68H579.922V795.6H593.122V798H577.282ZM591.628 778.8L594.148 769.68H597.068L593.988 778.8H591.628ZM599.939 798L612.299 769.68H615.019L626.939 798H623.979L620.899 790.48H605.899L602.699 798H599.939ZM619.939 788.08L613.539 772.56L606.939 788.08H619.939ZM654.562 782.72V796.16C651.282 798.04 647.682 798.72 644.002 798.72C635.362 798.72 629.362 792.48 629.362 783.84C629.362 775.2 635.362 768.96 644.002 768.96C648.202 768.96 651.602 770.24 654.202 772.88L652.282 774.88C650.562 772.8 647.082 771.36 644.002 771.36C636.602 771.36 632.002 776.8 632.002 783.84C632.002 790.88 636.602 796.32 644.002 796.32C647.042 796.32 649.762 795.92 651.922 794.64V785.12H645.122V782.72H654.562ZM665.175 772.08V782.16H670.775C676.335 782.16 677.415 779.08 677.415 777.12C677.415 775.16 676.335 772.08 670.775 772.08H665.175ZM662.535 798V769.68H669.975C672.215 769.68 680.055 769.68 680.055 777.12C680.055 782.52 675.935 784 672.815 784.4L681.055 798H678.055L670.095 784.56H665.175V798H662.535ZM686.446 798V769.68H689.086V798H686.446ZM718.196 791.92L720.356 793.56C717.676 797.24 713.996 798.72 709.836 798.72C701.196 798.72 695.196 792.48 695.196 783.84C695.196 775.2 701.196 768.96 709.836 768.96C713.676 768.96 717.116 770.24 719.596 773.4L717.436 775.2C715.676 772.56 712.676 771.36 709.836 771.36C702.436 771.36 697.836 776.8 697.836 783.84C697.836 790.88 702.436 796.32 709.836 796.32C712.676 796.32 716.196 794.96 718.196 791.92ZM723.56 783.84C723.56 775.2 729.56 768.96 738.2 768.96C746.84 768.96 752.84 775.2 752.84 783.84C752.84 792.48 746.84 798.72 738.2 798.72C729.56 798.72 723.56 792.48 723.56 783.84ZM726.2 783.84C726.2 790.88 730.8 796.32 738.2 796.32C745.6 796.32 750.2 790.88 750.2 783.84C750.2 776.8 745.6 771.36 738.2 771.36C730.8 771.36 726.2 776.8 726.2 783.84ZM758.96 798V769.68H761.6V795.6H774.8V798H758.96ZM781.768 798V772.08H772.088V769.68H794.088V772.08H784.408V798H781.768ZM818.777 769.68V787.16C818.777 793.2 816.177 798.72 808.457 798.72C800.737 798.72 798.137 793.2 798.137 787.16V769.68H800.777V786.48C800.777 790.52 801.857 796.32 808.457 796.32C815.057 796.32 816.137 790.52 816.137 786.48V769.68H818.777ZM828.84 772.08V782.16H834.44C840 782.16 841.08 779.08 841.08 777.12C841.08 775.16 840 772.08 834.44 772.08H828.84ZM826.2 798V769.68H833.64C835.88 769.68 843.72 769.68 843.72 777.12C843.72 782.52 839.6 784 836.48 784.4L844.72 798H841.72L833.76 784.56H828.84V798H826.2ZM846.431 798L858.791 769.68H861.511L873.431 798H870.471L867.391 790.48H852.391L849.191 798H846.431ZM866.431 788.08L860.031 772.56L853.431 788.08H866.431Z" fill="white" stroke="white" stroke-width="2" mask="url(#path-7-inside-2_1_309)"/>
<path d="M0 698H1144H0Z" fill="white"/>
<path d="M0 698H1144" stroke="white" stroke-width="2"/>
</svg>
