<svg width="100" height="100" viewBox="0 0 100 100" fill="none" xmlns="http://www.w3.org/2000/svg">
<g clip-path="url(#clip0_60_7)">
<path d="M91.4023 89.0166L78.1634 57.0553C77.8262 56.2413 76.8928 55.8543 76.0785 56.1917C75.2643 56.5292 74.8774 57.4626 75.2149 58.2766L87.1832 87.1704L76.2664 84.0072C75.5498 83.7994 74.7845 84.1164 74.4247 84.7702L68.9419 94.7262L56.1 63.7228C70.9219 60.8645 82.1525 47.7966 82.1525 32.153C82.1528 14.4238 67.7291 0 50 0C32.2708 0 17.847 14.4238 17.847 32.153C17.847 39.334 20.2138 45.9723 24.2079 51.3302L8.59766 89.0166C8.36298 89.5834 8.47383 90.2345 8.88298 90.6915C9.29191 91.1485 9.92702 91.3306 10.5162 91.16L23.3955 87.4279L29.8636 99.174C30.1453 99.6853 30.6821 100 31.2611 100C31.2904 100 31.32 99.9992 31.3496 99.9977C31.9621 99.9636 32.5009 99.5817 32.7357 99.0149L45.1051 69.1526C45.4423 68.3383 45.0557 67.4049 44.2415 67.0677C43.4272 66.7304 42.4938 67.117 42.1566 67.9313L31.0577 94.7262L25.5753 84.7702C25.2153 84.1164 24.4496 83.7994 23.7334 84.0072L12.8168 87.1704L26.5183 54.0919C32.3902 60.3728 40.7438 64.3057 50 64.3057C50.9555 64.3057 51.9006 64.2613 52.8351 64.1794L67.2645 99.0149C67.4991 99.5817 68.0381 99.9636 68.6504 99.9975C68.6802 99.9992 68.7096 100 68.7391 100C69.3181 100 69.8549 99.6853 70.1364 99.174L76.6047 87.4279L89.484 91.16C90.0736 91.3309 90.7081 91.1485 91.1172 90.6915C91.5264 90.2345 91.637 89.5834 91.4023 89.0166ZM21.0385 32.153C21.0385 16.1836 34.0306 3.19149 50 3.19149C65.9694 3.19149 78.9613 16.1836 78.9613 32.153C78.9613 48.1223 65.9694 61.1143 50 61.1143C34.0306 61.1143 21.0385 48.1223 21.0385 32.153Z" fill="white"/>
<path d="M68.4381 26.1619C68.2545 25.5964 67.7711 25.1798 67.1845 25.0813L56.4468 23.2793L51.4151 13.6242C51.1402 13.0968 50.5949 12.7659 50 12.7659C49.4053 12.7659 48.8598 13.0968 48.5849 13.6242L43.553 23.2793L32.8156 25.0813C32.229 25.1795 31.7458 25.5961 31.5619 26.1619C31.3781 26.7276 31.5241 27.3485 31.9409 27.773L39.5685 35.5421L37.9643 46.311C37.8766 46.8993 38.1234 47.4874 38.6047 47.8372C39.0856 48.1866 39.7215 48.2395 40.2539 47.9747L50 43.121L59.746 47.9747C59.9713 48.0868 60.2147 48.1421 60.4573 48.1421C60.7885 48.1421 61.1177 48.0391 61.3953 47.8374C61.8766 47.4876 62.1234 46.8995 62.0358 46.3112L60.4317 35.5423L68.0594 27.773C68.476 27.3485 68.6219 26.7276 68.4381 26.1619ZM57.5975 33.8734C57.2468 34.2306 57.0841 34.7315 57.1579 35.2264L58.4281 43.7527L50.7115 39.91C50.4873 39.7985 50.2439 39.7425 50 39.7425C49.7564 39.7425 49.5126 39.7983 49.2887 39.91L41.5722 43.7527L42.8424 35.2264C42.9162 34.7315 42.7534 34.2304 42.4028 33.8734L36.3634 27.7219L44.8649 26.2951C45.3585 26.2123 45.7847 25.9027 46.016 25.4589L50 17.8144L53.9841 25.4591C54.2156 25.903 54.6415 26.2125 55.1351 26.2953L63.6368 27.7221L57.5975 33.8734Z" fill="white"/>
</g>
<defs>
<clipPath id="clip0_60_7">
<rect width="100" height="100" fill="white"/>
</clipPath>
</defs>
</svg>
